<?xml version="1.0" standalone="no"?>
<!DOCTYPE svg PUBLIC "-//W3C//DTD SVG 20010904//EN"
 "http://www.w3.org/TR/2001/REC-SVG-20010904/DTD/svg10.dtd">
<svg version="1.0" xmlns="http://www.w3.org/2000/svg"
 width="329.000000pt" height="329.000000pt" viewBox="0 0 329.000000 329.000000"
 preserveAspectRatio="xMidYMid meet">
<metadata>
Created by potrace 1.11, written by Peter Selinger 2001-2013
</metadata>
<g transform="translate(0.000000,329.000000) scale(0.100000,-0.100000)"
fill="#000000" stroke="none">
<path d="M0 1645 l0 -1645 1645 0 1645 0 0 1645 0 1645 -1645 0 -1645 0 0
-1645z m2063 1030 c99 -13 303 -57 314 -68 3 -4 -56 -319 -61 -325 -2 -1 -41
7 -87 17 -173 41 -357 51 -486 26 -212 -40 -350 -177 -415 -412 -19 -69 -22
-104 -22 -298 -1 -256 10 -323 74 -452 62 -127 154 -198 310 -240 125 -34 442
-16 680 39 9 2 23 -37 48 -140 18 -79 31 -149 28 -157 -10 -27 -250 -84 -438
-104 -447 -49 -800 59 -983 301 -133 175 -195 408 -195 730 0 359 92 635 275
823 144 148 314 232 532 264 95 14 304 12 426 -4z m162 -571 c33 -8 61 -17 63
-19 2 -1 -7 -46 -19 -99 -17 -74 -26 -95 -37 -91 -37 14 -163 27 -220 22 -90
-7 -147 -44 -187 -122 -28 -56 -30 -65 -30 -179 0 -105 3 -128 23 -171 32 -70
58 -93 121 -112 78 -22 195 -12 328 31 20 6 24 1 42 -61 38 -130 40 -118 -24
-142 -147 -55 -396 -66 -517 -23 -172 61 -253 187 -265 410 -15 268 69 452
241 533 35 16 83 34 107 39 65 14 303 4 374 -16z"/>
</g>
</svg>
