<?xml version="1.0" standalone="no"?>
<!DOCTYPE svg PUBLIC "-//W3C//DTD SVG 20010904//EN"
 "http://www.w3.org/TR/2001/REC-SVG-20010904/DTD/svg10.dtd">
<svg version="1.0" xmlns="http://www.w3.org/2000/svg"
 width="256.000000pt" height="256.000000pt" viewBox="0 0 256.000000 256.000000"
 preserveAspectRatio="xMidYMid meet">
<metadata>
Created by potrace 1.11, written by Peter Selinger 2001-2013
</metadata>
<g transform="translate(0.000000,256.000000) scale(0.100000,-0.100000)"
fill="#000000" stroke="none">
<path d="M1233 2202 c-86 -26 -128 -150 -74 -223 24 -33 26 -40 8 -33 -7 2
-25 -7 -40 -20 -29 -27 -31 -62 -6 -92 10 -12 -31 -14 -288 -14 -284 0 -301
-1 -317 -19 -13 -14 -16 -28 -12 -48 6 -24 -22 -86 -154 -351 -88 -177 -160
-333 -160 -345 0 -50 36 -137 79 -191 112 -140 298 -180 460 -99 80 41 160
135 181 212 25 95 30 80 -135 410 -85 170 -155 313 -155 318 0 6 474 9 573 4
16 -1 17 -35 15 -608 l-3 -606 -260 -1 c-235 -1 -263 -3 -287 -19 -45 -31 -58
-106 -24 -129 6 -4 300 -8 654 -8 l642 0 12 25 c15 34 0 83 -35 109 -27 20
-41 21 -285 23 -141 0 -260 2 -263 2 -9 1 -5 1198 4 1207 8 9 567 12 572 3 2
-3 -64 -142 -147 -310 -83 -167 -151 -311 -153 -319 -4 -30 28 -125 59 -174
156 -245 521 -220 644 44 52 111 53 106 -124 460 -120 239 -158 323 -156 346
6 64 4 64 -329 64 l-300 0 15 22 c9 12 16 30 16 39 0 23 -31 59 -55 64 -11 2
-21 4 -22 4 -1 1 9 17 22 37 40 58 30 131 -24 182 -40 39 -91 50 -148 34z
m1012 -1092 c-2 -3 -110 -5 -242 -5 -203 1 -238 3 -235 15 2 8 56 120 120 247
l116 233 122 -243 c67 -133 120 -244 119 -247z m-1568 242 c62 -125 114 -234
115 -242 3 -13 -30 -15 -240 -15 -133 -1 -241 2 -240 5 2 3 57 112 123 243 65
130 121 237 124 237 3 0 57 -102 118 -228z"/>
</g>
</svg>
