<?xml version="1.0" encoding="utf-8"?>
<!-- Generator: Adobe Illustrator 19.2.1, SVG Export Plug-In . SVG Version: 6.00 Build 0)  -->
<svg version="1.1"
	 id="svg2562" inkscape:output_extension="org.inkscape.output.svg.inkscape" inkscape:version="0.46+pre4" sodipodi:docname="bride holding flowers outline.svg" sodipodi:version="0.32" xmlns:cc="http://creativecommons.org/ns#" xmlns:dc="http://purl.org/dc/elements/1.1/" xmlns:inkscape="http://www.inkscape.org/namespaces/inkscape" xmlns:rdf="http://www.w3.org/1999/02/22-rdf-syntax-ns#" xmlns:sodipodi="http://sodipodi.sourceforge.net/DTD/sodipodi-0.dtd" xmlns:svg="http://www.w3.org/2000/svg"
	 xmlns="http://www.w3.org/2000/svg" xmlns:xlink="http://www.w3.org/1999/xlink" x="0px" y="0px" width="63px" height="94.1px"
	 viewBox="0 0 63 94.1" enable-background="new 0 0 63 94.1" xml:space="preserve">
<g id="layer1" inkscape:groupmode="layer" inkscape:label="Layer 1">
	<path id="path2585" fill="#555555" d="M39.1,0c-0.9,0-1.2,0.1-1.3,0.3c-0.1,0.2-0.3,0.3-0.5,0.2c-0.2-0.1-0.6,0.1-0.9,0.3
		c-0.8-0.1-3.1,0.2-3.3,0.5c-0.1-0.1-0.2-0.1-0.5-0.1c-0.4,0-0.5,0.1-0.5,0.2l-1.6,0.4c-2.2,1-4.5,3-5.2,3.8
		c0.1,1.7-0.2,3.2-0.8,4.6c-1.6,3.4-5.5,5.9-8.9,8.5c-1.4,1-2.6,3.7-3.9,5.7c-3.1,4.9-4.6,9.6-7.7,12.5c0.6,1.8,1.4,3.3,2.6,4.5
		c0,1.9-0.4,3.9-0.8,5.9c-0.2,1.4-0.9,2.7-1.2,4.1c-1.4,5.5-1.9,8.1-3.6,11.7c1-0.9,3.8-1.6,5.8-2.5c1.3-0.6,0.4,4.1,1,5.4
		c0.5,1.1-2.3,1.4-3.1,2.4c-1.2,1.4-2.1,1.6-2.8,3.4c-1.9,4.8-1.9,9.5-2,14.3l0,0c0.1,0.3,1.3,2.5,1.8,3.6c1,2.1,1.4,2.6,1.4,1.8
		c0-1.8,1.9-5.1,5-8.6c1.8-2.1,5.3-7,5.7-8c0.1-0.2,0.3-0.7,0.6-1c0.4-0.6,3.2-5.9,4.3-8.2c0.6-1.3,1.1-1.9,1.3-1.7
		c0,0-0.3,0.7-0.7,1.5c-0.4,0.8-0.8,1.6-0.8,1.8c-0.1,0.5-0.4,1.2-1.6,3.7c-0.6,1.4-1.2,2.6-1.2,2.7c-0.1,0.7-1.1,2.8-1.4,3.2
		c-0.1,0.2-0.3,2.2-0.3,5.1c0,4.1-0.5,9.5-1,11.9c-0.1,0.6,0,0.5,0.8-0.7c1.2-1.9,2.1-2.8,4.4-4.8c2-1.7,5.8-4.6,6.8-5.1
		c0.3-0.2,1.3-0.8,2.2-1.4c1.5-1,1.7-1.3,2.5-2.9c1.1-2.2,1.7-3.2,3.2-5l1.1-1.4l-0.7-1.8c-1-2.7-1-2.8-0.7-3.2
		c0.2-0.2,0.6-0.7,0.9-1.2c1.2-1.6,4.1-4.3,4.3-4c0.1,0.2,2,5.1,2.2,5.7c0.4,1.6,3.4,5.9,4.3,6.4c0.5,0.3,0.6,0.3,0.8-0.1
		c0.2-0.3,0.6-0.4,1.2-0.4l1,0l-0.9-0.1c-0.8-0.1-0.9-0.2-0.8-0.6c0.1-0.3,0.2-1,0.3-1.5c0.1-0.6,0.3-1,0.4-1c0.3,0,0.9-0.6,0.9-0.9
		c0-0.1-0.1-0.1-0.3,0.1c-0.5,0.5-0.7,0.3-0.6-0.5c0.1-1.1,0.2-1.2,0.8-0.8c0.6,0.4,0.7,0.3,0.3-0.3c-0.3-0.5-0.1-1.5,0.3-1.3
		c0.3,0.2,2.8,0.2,3,0c0.2-0.2,1.7-0.4,1.7-0.2c0,0.3,0.9,0.5,1.2,0.2c0.4-0.2-0.1-0.8-0.8-0.9c-0.6-0.1-0.6-0.1-0.3-0.7
		c0.2-0.6,1.1-0.7,1.6-0.1c0.2,0.2,0.3,0.3,0.3,0.1c0-0.2-0.1-0.4-0.2-0.4c-0.1-0.1-0.2-0.6-0.2-1.1c0-0.5-0.1-0.9-0.2-0.8
		c-0.1,0.1-0.3,0-0.4-0.1c-0.1-0.1,0-0.3,0.1-0.4c0.2-0.1,0.2-0.1,0.1,0.1c-0.1,0.2-0.1,0.3,0.1,0.1c0.2-0.1,0.2-0.3-0.1-0.6
		c-0.3-0.3-0.5-0.4-0.6-0.2c-0.1,0.2-0.4,0.2-0.8,0.1l-0.7-0.2l0.7-0.2c0.4-0.1,0.6-0.2,0.5-0.2c-0.1,0-0.2,0-0.2,0
		c0,0-0.5-0.1-0.9-0.3c-0.5-0.2-0.9-0.3-0.9-0.2c0,0.1-0.1,0-0.3-0.3c-0.2-0.3-0.4-0.4-0.8-0.2c-0.7,0.3-1.6,0.3-1.9-0.1
		c-0.3-0.4-0.4-0.4-1.4-0.4c-0.4,0-0.6-0.2-0.6-0.5c0-0.3,0.1-0.5,0.2-0.6c0.1-0.1,0.1-0.4-0.2-0.7c0,0,0,0,0,0
		c0.1-0.1,0.2-0.1,0.3-0.2c0-0.1,0.1-0.1,0.1-0.2c0,0,0.1-0.1,0.1-0.1c0.1,0,0.2-0.1,0.4-0.1c0.1,0,0.3-0.1,0.4-0.1
		c0.1,0,0.1,0,0.2-0.1c0,0.1,0,0.3-0.1,0.4c-0.2,0.8,0,1.1,1.1,1.3c0.4,0.1,0.7,0.2,0.8,0.4c0.1,0.4,0.5,0.3,0.5-0.2
		c0-0.3-0.1-0.5-0.2-0.5c-0.1,0-0.2-0.2-0.2-0.5c0-0.4-0.1-0.5-0.6-0.3C48.1,58,48,57.9,48,57.7c0-0.2-0.1-0.4-0.3-0.5
		c0.1-0.1,0.3-0.2,0.4-0.3c0.1-0.1,0.2-0.2,0.3-0.3c0.1-0.1,0.3-0.2,0.4-0.3c0.1-0.1,0.2-0.2,0.3-0.4c0.1-0.1,0.2-0.2,0.3-0.3
		c0.1,0,0.1-0.1,0.2-0.1c0,0,0,0,0.1,0c0.1,0,0.2-0.1,0.4-0.1c0.1,0,0.2,0,0.3,0c0.1,0,0.2,0,0.3,0c0.1,0,0.2,0,0.3,0c0,0,0,0,0,0
		c0.2,0.4,0.2,0.8-0.1,1c-0.2,0.2-0.3,0.4-0.2,0.5c0.2,0.4,0.8-0.3,0.7-0.7c-0.1-0.3,0-0.4,0.3-0.4c0.2,0,0.3,0.1,0.3,0.2
		c-0.2,0.3,1,0.7,1.2,0.4c0.2-0.3,1.2-0.5,1.3-0.3c0.1,0.1-0.2,0.3-0.6,0.5c-0.4,0.2-0.7,0.5-0.7,0.7c0,0.3-0.1,0.3-0.3-0.1
		c-0.4-0.7-1.1-0.7-1.8-0.1c-0.3,0.3-0.5,0.4-0.4,0.3c0.1-0.2,0-0.3-0.2-0.3c-0.2,0-0.4,0.1-0.4,0.2c0,0.5,0.3,1,0.6,1
		c0.6,0,0.8,1,0.4,1.5c-0.4,0.5-0.4,0.5,0.1,0.1c0.6-0.5,1-0.6,1.8-0.3c1.1,0.4,2.3,0.6,2.3,0.3c0-0.2,0.3-0.2,0.8-0.2
		c0.4,0.1,0.6,0.1,0.5,0c-0.2-0.1-0.2-0.2-0.2-0.3c0.1-0.1-0.1-0.2-0.4-0.2c-0.5,0-0.5,0-0.1-0.5c0.3-0.3,0.8-0.5,1.3-0.6
		c0.2,0,0.3,0,0.5-0.1c0.1,0,0.1,0.1,0.2,0.1c0.1,0.1,0.2,0.2,0.3,0.3c0.1,0.1,0.3,0.1,0.4,0.2c0.2,0.1,0.3,0.1,0.5,0.3
		c0.1,0.1,0.3,0.2,0.4,0.3c0.1,0.1,0.2,0.2,0.3,0.2c0.1,0,0.1,0.1,0.2,0.1c0,0,0,0,0.1,0c0,0,0,0,0,0c0.1,0.1,0.2,0.2,0.3,0.3
		c0.1,0.1,0.2,0.2,0.3,0.3c0.1,0.1,0.1,0.1,0.2,0.2c0,0-0.1,0.1-0.2,0.2c-0.1,0.2-0.7,0.4-1.4,0.4c-1,0.1-1.2,0-1.2-0.3
		c0-0.2,0-0.4,0-0.5c0-0.1-0.1-0.3-0.1-0.5c-0.1-0.3,0-0.4,0.2-0.2c0.2,0.2,0.3,0.4,0.3,0.5c0,0.1,0.1,0.3,0.3,0.3
		c0.3,0,0.4,0,0.3-0.3c-0.2-0.7-0.5-0.9-1-0.9c-0.4,0.1-0.6,0.9-0.3,1.7c0.1,0.3,0.1,0.6-0.1,0.6c-0.2,0.1-0.2,0.2-0.1,0.3
		c0.1,0.1,0.5,0,0.9-0.1c1-0.4,1.4-0.2,1.4,0.8c0,1-0.3,1.3-1,1.2c-0.4-0.1-0.6-0.3-0.6-0.7c0-0.6,0.5-0.8,0.8-0.3
		c0.2,0.4,0.6,0.3,0.5-0.2c0-0.2-0.2-0.4-0.4-0.5c-0.5-0.2-1.5,0.5-1.3,0.8c0.1,0.2,0,0.3-0.1,0.2c-0.1-0.1-0.2-0.3-0.2-0.5
		c0-0.3-0.2-0.3-0.8-0.2c-0.7,0.1-0.8,0.1-0.7-0.3c0.1-0.3,0.1-0.3-0.1,0c-0.1,0.2-0.4,0.4-0.5,0.3c-0.4-0.3-0.4,1.3,0,1.8
		c0.2,0.3,0.5,0.5,0.5,0.5c0.3,0,0-0.8-0.3-1.1c-0.3-0.2-0.3-0.3-0.1-0.4c0.4-0.2,1,0.3,0.9,0.8c-0.1,0.2,0,0.5,0.1,0.5
		c0.1,0,0.1,0.2-0.1,0.4c-0.2,0.2-0.5,0.5-0.7,0.8c-0.2,0.2-0.2,0.4-0.1,0.4c0.1,0,0.3-0.1,0.3-0.3c0.1-0.4,2.3-0.3,2.6,0.1
		c0.1,0.2,0.2,0.2,0.3-0.1c0.1-0.2,0.4-0.3,0.8-0.3c0.9,0,1.3-0.4,1-1.2c-0.3-0.8-0.3-0.9,0-0.7c0.1,0.1,0.2,0,0.2-0.1
		c0-0.1,0.1-0.2,0.3-0.1c0.2,0.1,0.2,0.1,0.1,0c-0.1-0.1-0.1-0.3,0.1-0.5c0.1-0.2,0.2-0.3,0.1-0.3c-0.1,0,0-0.2,0.2-0.4
		c0,0,0,0.1,0,0.1c0,0.1,0.1,0.3,0.1,0.4c0,0.1,0,0.2,0,0.3c0,0.1,0,0.2,0,0.3c0,0.1,0,0.2,0,0.3c0,0.1,0,0.2,0.1,0.3
		c0,0.1,0.1,0.2,0.1,0.3c0,0.1,0.1,0.2,0.1,0.3c0,0.1,0,0.3,0,0.4c0,0.1,0,0.3,0,0.4c0,0.1,0,0.2,0,0.3c0,0,0,0.1,0,0.1
		c-0.3-0.3-0.8-0.4-0.8-0.1c0,0.1-0.2,0.2-0.4,0.1c-0.2,0-0.4,0-0.4,0.2c0,0.2,0.3,0.3,0.7,0.3c0.4,0,0.7,0,0.8,0.2c0,0,0,0,0.1,0.1
		c0,0.1,0,0.1,0,0.2c0,0.1-0.1,0.3-0.1,0.4c0,0.1-0.1,0.2-0.1,0.3c-0.1,0.1-0.1,0.2-0.2,0.3c-0.1,0.1-0.1,0.2-0.2,0.3
		c-0.1,0.1-0.1,0.3-0.1,0.4c0,0.1-0.1,0.3-0.1,0.4c0,0.1-0.1,0.3-0.1,0.4c-0.1,0.1-0.1,0.2-0.1,0.4c0,0.1-0.1,0.2-0.2,0.3
		c-0.1,0.1-0.1,0.1-0.2,0.2c0-0.2,0-0.4,0.1-0.7c0-0.4,0-0.6-0.2-0.5c-0.1,0.1-0.1,0,0.1-0.2c0.2-0.3,0.2-0.4,0.1-0.5
		c-0.1-0.1-0.2-0.4-0.2-0.6c0-0.3-0.1-0.5-0.4-0.4c-0.3,0.1-0.4,0.3-0.4,1c0,1-0.3,1.1-0.8,0.4c-0.2-0.2-0.8-0.7-1.4-1
		c-1.2-0.6-1.7-0.7-1-0.2c0.2,0.2,0.5,0.6,0.5,0.9c0.1,0.4,0.2,0.6,0.6,0.6c0.3,0,0.6,0.1,0.8,0.3c0.3,0.3,0.2,0.3,0,0.1
		c-0.6-0.3-0.9-0.3-1.3,0.2c-0.2,0.2-0.3,0.5-0.2,0.5c0.1,0,0.1,0.1-0.1,0.2c-0.3,0.2-0.3,0.3,0,0.4c0.4,0.3-0.1,0.6-0.6,0.4
		c-0.2-0.1-0.3-0.1-0.3,0c0,0.1,0.2,0.2,0.5,0.3c0.9,0.4,1.3,0.3,2-0.5c0.4-0.4,0.9-0.8,1.2-0.8c0.2,0,0.4-0.2,0.4-0.4
		c0-0.2,0.2-0.4,0.4-0.4c0.4-0.1,0.4,0,0.2,0.5c-0.1,0.2-0.1,0.4-0.1,0.6c0,0,0,0,0,0c0,0,0,0,0,0c0,0,0,0,0,0c-0.1,0-0.1,0-0.2,0
		c-0.1,0-0.2,0.1-0.3,0.1c-0.3,0.1-0.5,0.2-0.7,0.4c0,0,0,0-0.1,0c-0.4,0.1-0.7,0.4-1,0.6c-0.1,0.1-0.2,0.2-0.4,0.3
		c-0.1,0.1-0.3,0.2-0.4,0.3c-0.1,0.1-0.3,0.2-0.4,0.3c-0.1,0.1-0.2,0.2-0.4,0.3c-0.1,0.1-0.2,0.1-0.3,0.2c-0.2,0.1-0.4,0.2-0.6,0.3
		c-0.1,0.1-0.2,0.2-0.3,0.3c0,0,0-0.1,0-0.1c-0.3-0.3-0.7-0.1-0.7,0.3c0,0.1,0,0.2,0,0.3c-0.1,0.1-0.3,0.2-0.4,0.3
		c-0.1,0.1-0.2,0.2-0.3,0.3c0,0-0.1,0-0.1,0.1c0,0-0.1,0-0.1,0c-0.1,0-0.1,0.1-0.2,0.1c0,0,0,0,0,0c0,0,0,0,0,0
		c-0.1,0-0.1,0.1-0.2,0.1c0,0,0,0,0,0c0,0-0.1,0-0.1,0c-0.1,0-0.2,0-0.2,0c-0.1,0-0.1,0.1-0.2,0.1c0,0,0,0,0,0
		c0-0.1,0.2-0.5,0.5-0.8c0.3-0.3,0.6-0.7,0.6-0.9c0-0.5-0.6-1.2-1-1.2c-0.3,0-0.3,0,0,0.2c0.2,0.1,0.3,0.3,0.1,0.5
		c-0.1,0.2-0.2,0.6-0.2,1c0,0.4-0.1,0.6-0.2,0.5c-0.1-0.1-0.2-0.2-0.1-0.3c0.1-0.1,0-0.3-0.2-0.5c-0.3-0.2-0.4-0.2-0.5,0.3
		c-0.2,0.8-0.2,1.4,0.1,1.3c0.1-0.1,0.2,0,0.2,0.1c-0.1,0-0.2,0-0.3,0c-0.1,0-0.3,0-0.4,0c-0.1,0-0.2,0-0.3,0c-0.1,0-0.2,0-0.3,0
		c-0.1,0-0.1,0-0.2,0c0,0,0,0,0,0c0,0-0.1,0-0.1,0c-0.3,0-0.5,0.2-0.8,0.3c0,0,0,0,0,0c-0.1,0-0.2,0.1-0.3,0.1c-0.2,0-0.3,0-0.5,0
		c-0.1,0-0.3,0-0.4,0c-0.1,0-0.2,0-0.4,0c-0.1,0-0.2,0-0.4,0c0,0-0.1,0-0.1,0.1c0.6-0.8,1.6-2.4,1.7-2.5c0-0.1,0.1-0.4,0.3-0.5
		c0.2-0.3-0.1-0.7-0.5-0.7c-0.1,0-0.2-0.1-0.4-0.2c-0.1-0.1-0.1-0.1,0.1-0.1c0.4,0.2,0.6-0.2,0.4-0.7c-0.2-0.4-0.2-0.6-0.3-0.9
		c0-0.1-0.2,0.1-0.4,0.4c-0.4,0.7-0.5,1.6-0.1,1.8c0.1,0.1,0.1,0.4,0,0.9c-0.4,1.1-0.5,1.5-0.4,1.5c0,0-0.2,0.3-0.5,0.6
		c-0.3,0.3-0.5,0.6-0.4,0.7s0.2,0.2,0.2,0.2c0,0,0.1,0,0.1-0.1c0.1,0,0.1,0,0.2,0c0.1,0,0.2,0,0.4,0c0.1,0,0.3,0,0.4,0
		c0.2,0,0.3,0,0.5,0c0.1,0,0.3,0,0.4-0.1c0.2-0.1,0.4-0.2,0.5-0.3c0,0,0.1,0,0.1,0c0.1,0,0.2,0,0.3-0.1c0.1,0,0.2,0,0.3,0
		c0.1,0,0.2,0,0.3,0c0.1,0,0.3,0,0.4,0c0.1,0,0.2,0,0.3,0c0.1,0,0.2,0,0.3-0.1c0.1,0,0.2-0.1,0.3-0.1c0.1,0,0.1,0,0.2,0
		c0,0,0.1,0,0.1-0.1c0,0,0.1,0,0.1,0c0.4-0.2,0.7-0.4,1.1-0.6c0,0,0.1,0,0.1-0.1c0,0,0,0,0,0c0.1,0,0.1-0.1,0.2-0.1
		c0.1-0.1,0.3-0.2,0.4-0.2c0,0,0.1-0.1,0.1-0.1c0.1-0.1,0.1-0.1,0.2-0.2c0,0,0,0,0,0c0.1,0,0.2-0.1,0.4-0.2c0.2-0.1,0.3-0.2,0.5-0.4
		c0.1-0.1,0.2-0.2,0.3-0.3c0.1-0.1,0.2-0.3,0.4-0.3c0,0,0,0,0.1,0c0.1-0.1,0.3-0.1,0.4-0.2c0.1-0.1,0.3-0.2,0.4-0.3
		c0.1-0.1,0.2-0.2,0.4-0.3c0.1-0.1,0.3-0.2,0.4-0.3c0.1-0.1,0.3-0.2,0.4-0.3c0.1-0.1,0.2-0.2,0.3-0.2c0.2-0.1,0.4-0.2,0.7-0.4
		c0.1,0,0.2-0.1,0.3-0.1c0.1,0,0.2,0,0.3-0.1c0.2-0.1,0.4-0.2,0.5-0.3c0,0,0,0,0.1,0c0.1,0.1,0.2,0,0.3-0.2c0,0,0-0.1,0-0.1
		c0.1,0,0,0,0.1-0.1c0,0,0,0,0,0c0.1-0.1,0.3-0.2,0.4-0.2c0.1-0.1,0.3-0.2,0.4-0.3c0.1-0.1,0.1-0.2,0.2-0.3c0.1-0.1,0.1-0.2,0.1-0.4
		c0.1-0.1,0.1-0.3,0.1-0.4c0-0.1,0.1-0.2,0.1-0.4c0-0.1,0.1-0.3,0.1-0.4c0-0.1,0.1-0.2,0.2-0.3c0.1-0.1,0.1-0.2,0.2-0.3
		c0-0.1,0.1-0.2,0.1-0.3c0-0.1,0.1-0.3,0.1-0.4c0-0.1,0.1-0.2,0.1-0.4c0-0.1,0.1-0.3,0.1-0.4c0-0.1,0-0.2,0-0.3c0-0.1,0-0.2,0-0.3
		c0-0.1,0-0.3,0-0.4c0-0.1,0-0.3,0-0.4c0-0.1-0.1-0.2-0.1-0.3c0-0.1,0-0.1,0-0.2c0-0.1,0-0.1-0.1-0.2c0-0.1,0-0.2,0-0.3
		c0-0.1,0-0.2,0-0.3c0-0.1,0-0.2,0-0.3c0-0.1,0-0.2,0-0.3c0-0.2-0.1-0.3-0.1-0.4c0-0.1-0.1-0.3-0.2-0.4c-0.1-0.1-0.2-0.3-0.2-0.4
		c-0.1-0.1-0.2-0.3-0.3-0.4c-0.1-0.1-0.2-0.2-0.3-0.3c-0.1-0.1-0.2-0.2-0.3-0.3c-0.1-0.1-0.2-0.2-0.3-0.3c-0.1-0.1-0.2-0.2-0.3-0.3
		c-0.1-0.1-0.2-0.1-0.3-0.2c-0.1-0.1-0.2-0.1-0.3-0.2c-0.1-0.1-0.2-0.2-0.4-0.3c-0.1-0.1-0.3-0.2-0.5-0.3c-0.1-0.1-0.3-0.1-0.4-0.2
		c-0.1-0.1-0.2-0.2-0.3-0.3c-0.1-0.1-0.2-0.2-0.3-0.3c0,0-0.1,0-0.2,0.1c0,0-0.1-0.1-0.1-0.1c-0.2-0.3-0.5-0.4-0.6-0.4
		c-0.2,0.1-0.2-0.3,0-0.7c0.1-0.1,0.1-0.4,0-0.7c-0.2-0.7-0.6,0-0.6,1.2c-0.1,1.2,0,1.1-0.4,0.8c-0.2-0.2-0.3-0.4-0.1-0.7
		c0.2-0.3,0.2-0.5-0.3-0.8c-0.8-0.6-1.7-0.7-2.4-0.5c-0.4,0.2-0.7,0.1-1.1-0.3c-0.2-0.2-0.5-0.4-0.8-0.4c0,0,0.1-0.1,0-0.1
		c-0.1,0-0.2,0-0.3,0c-0.1,0-0.2,0-0.3,0c-0.1,0-0.2,0-0.3,0c-0.1,0-0.2,0-0.4,0.1c-0.4,0.1-0.7,0.3-1.1,0.6
		c-0.1,0.1-0.2,0.2-0.4,0.3c-0.1,0.1-0.2,0.2-0.3,0.3c-0.1,0.1-0.2,0.3-0.3,0.4c-0.1,0.1-0.3,0.2-0.4,0.3c-0.1,0.1-0.1,0.1-0.2,0.2
		c0,0-0.1,0-0.1,0c0,0,0,0,0,0c-0.2-0.2-0.3-0.2-0.3-0.1c0,0,0,0.1,0.1,0.2c-0.1,0-0.3,0.1-0.4,0.1c-0.4,0.1-0.7,0.3-1,0.5
		c-0.1,0-0.1,0.1-0.2,0.1c-0.4-1.1-0.8-4.7-1.2-10.4c-0.4-2.4,0.2-1.9-0.3-4.4c-0.1-0.1-0.2,0.5-0.4,1.3c-0.4,1.8-0.2,6.2,0.5,10.7
		c0.3,1.8,0.6,4.7,0.8,6.4c0.2,1.7,0.5,3.9,0.6,5c0.3,2,0.1,3.5-0.6,6.1l-0.4,1.3l-0.6-0.7c-1.4-1.7-2.9-4.6-3.9-7.2
		c-2.3-6.4-2.9-8.9-2.9-12.1c0-1.9-0.2-2.9-1.3-7.4c-1.7-6.7-1.9-8.1-1.9-12.4c0-3.4,0-3.6,0.7-4.9c0.7-1.4,1.9-2.6,2.9-2.9
		c0.3-0.1,0.8-0.4,1.2-0.7c0.9-0.8,2.1-1,2.7-0.5c0.5,0.5,1.3,2.4,1.5,3.9c0.1,0.6,0.2,1,0.3,1c0.2,0-0.1-2.9-0.3-3.3
		c-0.3-0.5,0.3-0.3,1.5,0.7c2.7,2.2,3,5.3,1.2,15c-0.3,1.5-0.4,2.7-0.4,2.8c0.1,0.1,0.2-0.2,0.3-0.6s0.2-1.1,0.4-1.5
		c0.1-0.5,0.4-1.8,0.6-3.1c0.2-1.2,0.6-2.8,0.8-3.5c0.6-1.8,0.6-5.4-0.1-6.8c-0.6-1.3-1.9-2.7-3.5-3.9c-0.6-0.5-1-0.9-0.9-0.9
		s0.5-0.4,0.7-0.9c0.2-0.5,0.5-0.9,0.6-1c0.1-0.1,0.3-0.4,0.5-0.8c0.3-0.7,0.3-0.8,0-1.5c-0.4-0.7-0.3-0.8,0.1-1.2
		c0.3-0.3,0.5-0.8,0.5-1.1c0-0.6,0-0.6-0.3-0.2c-0.3,0.4-0.3,0.4-0.4,0c-0.1-0.2,0-0.7,0.1-1.1c0.1-0.4,0.1-1.1,0.1-1.5
		c-0.1-0.5-0.2-2.1-0.3-3.5c-0.2-2.4-0.1-2.6,0.3-3c0.4-0.3,0.6-0.9,1-3.4c0.2-1-0.3-2-1.2-2.5c-0.7-0.4-0.8-0.6-0.7-1.1
		c0.1-0.4,0-0.8-0.3-1c-0.3-0.2-0.4-0.2-0.2,0c0.3,0.5-0.1,0.3-0.5-0.2c-0.4-0.4-0.7-0.5-2.7-0.6C39.8,0,39.4,0,39.1,0z M38.7,0.7
		c0.1,0,0.2,0,0.2,0.1c0,0.1-0.1,0.2-0.2,0.3c-0.1,0.1-0.2,0-0.2-0.1C38.5,0.8,38.6,0.7,38.7,0.7z M33.1,1.4
		c0.2,0.1,1.7,0.5,1.8,0.5c0.2,0,0.6-0.2,1-0.4c0,0.1,0.1,0.2,0.2,0.3c0.3,0.3,0.2,0.5-1,1c-0.7,0.3-1.4,0.8-1.6,1.1
		c-0.4,0.8-1,1.2-1.4,1.1c-0.5-0.2-2,0.3-2.7,1c-0.6,0.5-0.7,0.8-0.7,2.2c0,1.5,0,1.6-0.7,1.7c-0.4,0.1-1.1,0.6-1.7,1.2
		c-0.8,0.8-1.1,1.3-1.2,2.1c-0.1,0.6-0.4,1.3-0.7,1.6c-0.3,0.3-0.6,0.8-0.7,1.1c-0.2,0.6,0,3,0.3,3.8c0.1,0.4,0.1,0.5-0.3,0.5
		c-0.4,0-0.5-0.2-0.6-0.9c-0.1-0.9-0.1-0.9-0.3-0.3c-0.2,0.5-0.2,0.7,0.1,1.1c0.3,0.5,0.3,0.5-0.1,0.5c-0.6,0-1.8,1.3-1.8,1.9
		c0,0.3,0.1,0.4,0.2,0.4c0.1-0.1,0.2-0.2,0.1-0.3c-0.1-0.2,0.3-0.9,0.4-0.7c0.1,0.1,0,0.6-0.1,1.2c-0.2,1.1-0.1,1.2,0.5,1.7
		c0.4,0.3,1,0.6,1.4,0.7s0.8,0.3,0.8,0.4c0.1,0.1-0.4,1-1,1.9c-1.2,1.8-1.9,3.3-2.7,6.3c-0.4,1.5-0.5,2.3-0.5,7.3
		c0,5,0.2,7.1,0.7,9.1c0.1,0.4,0.1,0.7-0.1,0.7c-0.2,0-0.8,0.3-1.3,0.8c-1,0.7-1.4,1.6-0.8,2c0.1,0.1,0.2,0.3,0.2,0.4
		c0,0.3-1.9-2-2.1-2.3s-1.4-1.4-1.7-1.2c-0.3,0.2-0.1,1.2,0,2.7c0.1,0.8,0.2,1.4,0.2,1.8c-0.3,0.1-0.9,0.3-1.6,0.7
		c-0.9,0.5-2.3,1.2-3.1,1.5c-0.8,0.3-3,1.3-4.8,2.2c-1.9,0.9-3.4,1.6-3.5,1.6c-0.1,0,0.1-0.6,0.4-1.2c0.3-0.7,0.5-1.3,0.5-1.3
		c0,0,0-0.1,0-0.1c0,0,0.1-0.3,0.1-0.5c0-0.2,0.7-2.2,1.4-4.3c0.7-2.1,1.4-4,1.4-4.2c0-0.2,0.1-0.4,0.1-0.4c0.2,0,0.3-1.4,0.3-3.3
		c0-2.2,0.1-2.5,0.7-3.3c0.4-0.5,0.6-1,0.5-1.2c-0.1-0.1-0.7-1.1-1.4-2.1l-1.3-1.9l0.4-0.6c0.2-0.3,0.8-1.4,1.3-2.3
		c0.5-0.9,1-1.7,1.1-1.8c0.1-0.1,0.5-0.7,0.8-1.3c0.4-0.7,2.1-3.6,3.9-6.5l3.2-5.4l4.5-3.8c3.8-3.3,4.5-3.9,4.4-4.3
		c-0.1-0.4,0-0.5,0.2-0.5c1,0,1.5-2.3,0.7-2.9c-0.3-0.2-0.3-0.3,0.2-0.6c0.5-0.4,0.5-0.4,0.1-1.1c-0.4-0.7-0.4-0.7,0-0.4
		C26.5,6.3,27,6,27.1,5.3c0.1-0.7,1-1,1.5-0.5c0.3,0.2,0.3,0.2,0-0.4c-0.3-0.6-0.3-0.7,0.5-1.4c0.7-0.6,0.9-0.7,1.3-0.4
		C31,2.9,31,2.9,31.2,2l0.9-0.6c0,0.1,0.2,0.2,0.4,0.3c0.2,0.2,0.4,0.3,0.4,0.3c0,0,0.1-0.2,0.2-0.5C33.1,1.5,33.1,1.4,33.1,1.4z
		 M32.8,3c-0.5,0-0.6,0.2-0.3,0.6c0.2,0.2,0.6,0.1,0.7-0.3C33.2,3.2,33,3,32.8,3z M40.7,7.3c0.7,0,1.2,0.2,1.6,0.5
		c0.8,0.8,1,1.9,0.6,2.4c-0.2,0.2-0.3,0.4-0.1,0.4c0.5,0,0.3,0.4-0.3,0.7c-0.7,0.4-0.7,1,0.1,1.2c0.4,0.1,0.6,0.3,0.6,0.6
		c0,0.3,0.1,0.6,0.2,0.8c0.1,0.1,0.1,0.3-0.1,0.3c-0.2,0-0.2,0.2,0,0.6c0.3,0.8,0,4.9-0.4,5.5c-0.5,0.7-1.8,1.1-3.3,0.9
		c-0.7-0.1-1.1-0.1-1,0s-0.1,0.4-0.4,0.8c-0.3,0.3-0.7,1-0.9,1.5c-0.3,1.1-0.4,1.1-1.2,0.8c-0.3-0.1-1.1-0.2-1.7-0.1
		c-1.3,0.1-1.6-0.1-1-0.8c0.4-0.5,0.5-0.8,0.1-0.6c-0.4,0.3-1.7-0.8-1.7-1.5c0-0.7,1-2.9,1.3-2.9c0.1,0,0.6,0.3,1.1,0.7
		c1.2,1,1.4,0.9,0.3-0.2c-0.8-0.7-1-1.1-1-1.7c0-0.6-0.1-0.7-0.4-0.6c-0.7,0.2-1.9-1.3-1.9-2.4c0-1,0.4-1.2,1.6-0.9
		c1,0.3,1.4,0,1.8-1.2c0.2-0.5,0.7-1.3,1.3-1.8c0.5-0.5,1.1-1.2,1.2-1.7c0.2-0.7,0.4-0.8,1.6-1.1C39.4,7.4,40.1,7.3,40.7,7.3z M28,8
		c-0.1,0-0.2,0.2-0.2,0.4c0,0.2,0.1,0.4,0.2,0.4c0.1,0,0.2-0.2,0.2-0.4C28.2,8.2,28.1,8,28,8z M30,10.5l-0.3,0.5
		c-0.2,0.3-0.5,0.5-0.7,0.5s-0.3,0-0.3-0.1c0.1,0,0.4-0.3,0.7-0.5L30,10.5z M39,10.6c-1.2,0-1.2,0.4,0.1,0.5c0.9,0.1,1.3,0,1.2-0.3
		C40.2,10.7,39.6,10.6,39,10.6z M38.8,11.8c-0.3,0-0.7,0.1-1,0.2c-0.6,0.3-0.7,0.4-0.2,0.5c0.8,0.3,1.9,0.2,2.2-0.1
		C40.2,12.1,39.6,11.8,38.8,11.8z M24.3,13.5c-0.5,0-6.6,6.5-7.6,8.1c-0.6,0.9-1,1.7-1,1.7c0,0.1-0.6,1.1-1.4,2.3
		c-2.9,4.6-4.8,7.6-4.8,7.7c0,0.5,1.1-0.9,3-4c1.2-1.9,2.3-3.5,2.4-3.6c0.1-0.1,1.2-1.7,2.5-3.7c1.7-2.6,3-4.3,4.8-6.1
		C23.5,14.7,24.5,13.5,24.3,13.5z M25.1,15.7c0,0,0,0.1-0.2,0.4c-0.3,0.7-0.5,0.9-0.5,0.6c0-0.1,0.2-0.4,0.4-0.7
		C24.9,15.8,25,15.7,25.1,15.7z M42.2,16.9c-0.1,0-0.3,0-0.4,0.1c-0.9,0.2-1.5,0.6-1.2,0.9c0.1,0.1,0.7,0.2,1.2,0.2
		c0.8,0,0.9-0.1,0.8-0.3c-0.1-0.2-0.1-0.5-0.1-0.6C42.5,16.9,42.4,16.9,42.2,16.9z M44.5,21.2c0.1,0,0.1,0.1,0,0.4
		c-0.1,0.1-0.3,0.3-0.4,0.3c-0.2,0-0.1-0.1,0-0.4C44.3,21.3,44.4,21.2,44.5,21.2z M23.4,21.9C23.5,21.9,23.5,21.9,23.4,21.9
		c0,0.1-0.2,0.3-0.4,0.5c-0.3,0.2-0.5,0.3-0.5,0.2c0-0.1,0.2-0.4,0.5-0.5C23.2,22,23.4,21.9,23.4,21.9z M28.8,21.9
		c0.1,0,0.3,0.1,0.6,0.3c0.4,0.2,0.8,0.5,0.9,0.7c0.1,0.2,0.1,0.2-0.2,0c-0.5-0.5-0.8-0.3-0.6,0.3c0.1,0.3,0.1,0.8-0.1,1.1
		c-0.2,0.5-0.2,0.4-0.3-0.5c-0.1-0.6-0.2-1.3-0.3-1.5C28.7,22,28.7,21.9,28.8,21.9z M34.5,24.5c0.9,0,1.8,0.2,2.7,0.6
		c0.4,0.2,0.8,0.5,0.8,0.5c0,0.1-0.4,0.3-0.8,0.5c-1.3,0.5-2.4,1.5-3,2.9c-0.5,1.1-0.6,1.6-0.6,4.5c0,1.8,0.1,4,0.3,5
		c0.2,1,0.3,2.3,0.4,3c0.1,1,0.9,4.7,1.9,9c0.2,0.8,0.4,2.9,0.5,4.7c0.1,1.8,0.3,3.4,0.3,3.5c0.4,0.6-0.1,0.2-2.1-2
		c-2.2-2.4-3.2-3.8-3.2-4.9c0-0.7-0.1-0.8-2.4-1.1c-1.7-0.3-2.1-0.1-2.9,0.8l-0.6,0.7l0-1.6c0-0.9-0.2-2.1-0.4-2.7
		c-0.2-0.6-0.4-1.6-0.5-2.2c-0.1-0.6-0.4-2.2-0.8-3.7c-0.6-2.2-0.7-3.1-0.7-5.7c0-3.2-0.2-3.3-0.6-0.2c-0.2,1.6-0.2,1.6-0.5,0.9
		c-0.2-0.4-0.3-1-0.3-1.2c0-0.3-0.1-0.5-0.3-0.5c-0.1,0-0.2,0.2-0.1,0.4c0.1,0.2,0.2,1.1,0.3,2c0.2,2.9,0.4,3.6,2.4,9.7
		c0.8,2.3,0.8,2.4,0.4,4.7c-0.3,1.7-0.4,2.1-1,2.7c-0.4,0.4-0.8,0.7-0.8,0.7c-0.2-0.2-1.1-4.3-1-4.4c0.1-0.1,0-0.4-0.1-0.7
		c-0.5-1.2-0.7-4.2-0.7-8.6c0-4.1,0.1-5.1,0.9-9.1c0.2-1.1,1.3-3.2,2.5-5c0.4-0.6,0.5-0.6,0.8-0.3c0.2,0.3,0.7,0.4,1.6,0.5
		c1.5,0.1,2.4-0.2,4.1-1.7C32,25,33.2,24.5,34.5,24.5z M16.5,27.2L16.2,28c-0.2,0.5-0.4,1-0.4,1.2c0,0.2-0.1,0.4-0.1,0.4
		s-0.1,0.2-0.1,0.5c-0.1,0.3-0.4,1.2-0.7,1.9c-0.3,0.7-0.9,2.2-1.2,3.1c-0.6,1.6-0.9,2-2.5,3.5c-2.2,2.1-2.1,2.1,0.4,0.2
		c1.8-1.4,2.1-1.9,2.9-3.9c1.8-5.1,2.2-6.4,2.2-7L16.5,27.2z M17.5,32.8c0,0-0.1,0.1-0.2,0.3c-0.3,0.7-1.4,4.9-1.6,5.8
		c-0.1,0.6-1.6,6.7-2.4,9.4c-0.1,0.3-0.1,0.4,0.1,0.2c0.3-0.3,2-5.4,2.1-6.2c0-0.3,0.1-0.5,0.1-0.5c0,0,0.1-0.3,0.1-0.6
		c0-0.3,0.5-2.2,0.9-4.1C17.3,34.5,17.7,32.7,17.5,32.8z M28.4,51.1c0.6,0,1.5,0.1,2,0.2c0.8,0.2,0.9,0.3,0.9,1.2
		c0,1.1,0.7,2,3.2,4.6c1.6,1.6,2.8,3.6,2.8,4.5c0,0.3-0.3,0.7-0.7,0.9c-1.4,0.8-3.6,3.1-5.3,5.5c-1,1.4-2,2.6-2.3,2.8
		c-0.3,0.1-1,0.3-1.6,0.3s-1.4,0.2-1.8,0.4c-0.7,0.4-0.8,0.4-1.2-0.2c-0.8-1.1-2.3-4.4-2.5-5.7c-0.1-0.9-0.8-3.6-0.9-3.7
		c-0.1-0.1-0.5,0.3-1,0.9s-1.5,1.3-2.2,1.8c-0.7,0.5-1.7,1.3-2.1,1.8C13.7,68.8,13,69.9,13,70c0,0.1-0.4,0.5-0.8,0.8
		c-0.9,0.7-1.9,0.9-2.2,0.2c-0.3-0.5-0.7-2.9-0.9-4.6c-0.1-0.7-0.3-2.2-0.6-3.3c-0.5-1.9-0.5-2-0.1-2.8c0.6-1.3,2.2-2.2,5-2.7
		c3.1-0.6,2.9-0.5,2.6-1.4c-0.1-0.2-0.2-0.5-0.2-0.6c0-0.4,0-0.9-0.1-1.5c-0.2-1.9-0.4-2.3-0.1-2.3c0.3,0,2.4,2.1,3.6,3.6
		c0.4,0.5,0.6,0.7,0.5,0.5c0.4,0.5,0.7,1.2,1,1.7c0,0.5,1,2.1,1.3,2.1c0.1,0,0.6-0.5,1.2-1c1.4-1.4,4.2-3.5,4.7-3.5
		c0.3,0,0.3,0.3,0.2,1.4c-0.1,0.8-0.2,1.7-0.4,2c-0.3,0.8-0.3,1.2,0,1c0.3-0.2,0.9-2.3,1.1-3.9c0.1-1,0.1-1.3-0.2-1.4
		c-0.6-0.2-2.2,0.8-4.3,3l-2.2,2.1l-0.3-0.7c-0.3-0.8,0-1.3,2-3.2c0.7-0.6,1.7-1.9,2.3-2.8C27.3,51.1,27.3,51.1,28.4,51.1z
		 M54.9,56.1C55,56.1,55,56.1,54.9,56.1c0.2,0.1,0.4,0.4,0.5,0.7s0,0.5-0.1,0.5c-0.1,0-0.2-0.1-0.2-0.2c0-0.1-0.1-0.4-0.2-0.6
		C54.9,56.2,54.9,56.1,54.9,56.1z M54.5,56.9c0.2,0,0.2,0.1,0.2,0.3c-0.1,0.2,0,0.3,0.2,0.3c0.2,0,0.3,0.1,0.2,0.4
		c-0.1,0.2,0,0.4,0.2,0.4c0.2,0,0.4,0.1,0.4,0.2c0,0.3-0.4,0.3-0.7-0.1c-0.2-0.2-0.4-0.3-0.6-0.2c-0.2,0.1-0.5,0.1-0.7,0
		c-0.3-0.1-0.3-0.2-0.1-0.6C53.8,57.2,54.3,56.9,54.5,56.9z M17.6,58.6c-0.2,0-0.3,0-0.5,0c-1.4,0.1-2.9,0.7-3.9,1.4
		c-2.2,1.8-3,2.7-2.7,3.2c0.1,0.2,1.8-0.4,2.7-1c0.3-0.2,0.8-0.5,1.1-0.6c0.3-0.1,0.5-0.3,0.5-0.4c0-0.1-0.8,0.2-1.7,0.6
		c-0.9,0.5-1.7,0.8-1.8,0.7c-0.3-0.3,1-1.4,2.7-2.2c1.6-0.8,1.8-0.8,3.5-0.7c1,0.1,2.1,0.2,2.6,0.3c0.6,0.1,0.9,0.1,0.9-0.1
		c0-0.4-2.1-1.3-2.6-1.1c-0.2,0.1-0.3,0-0.2-0.1C18.4,58.6,18.1,58.6,17.6,58.6z M54.3,60.2c0,0-0.2,0.1-0.4,0.2
		c-0.5,0.4-0.5,0.5-0.1,1.1l0.4,0.7l0.1-0.8c0.1-0.4,0-0.8-0.1-0.9C54.2,60.6,54.2,60.4,54.3,60.2C54.3,60.2,54.3,60.2,54.3,60.2z
		 M56,60.3c0,0-0.1,0-0.1,0.1c-0.1,0.1-0.1,0.3,0,0.4c0.1,0.2,0.2,0.2,0.3,0C56.3,60.6,56.2,60.3,56,60.3z M24.4,60.4
		c-0.1,0-0.2,0-0.2,0c-1.8,0.1-1.4,0.4,0.6,0.5c1.1,0,2.1,0.2,2.7,0.5c1,0.5,1.5,0.5,1.1,0.1C28,61,25.7,60.4,24.4,60.4z M61,60.4
		C61,60.4,61.1,60.4,61,60.4c0.1,0.1,0.2,0.2,0.3,0.3c-0.2,0-0.3,0-0.3-0.2C61,60.5,61,60.4,61,60.4z M47,60.7c0,0,0.1,0,0.1,0.1
		c0.1,0.1,0.3,0.2,0.4,0.1c0.1-0.1,0.2,0,0.2,0.1c0,0.1-0.2,0.3-0.4,0.5c-0.4,0.2-0.6,1-0.3,1.3c0.1,0.1,0,0.4-0.3,0.7
		c-0.5,0.5-0.5,0.5-0.5-0.8C46.1,61.9,46.7,60.7,47,60.7z M20,60.9c-0.1,0-0.1,0-0.2,0.1c-0.2,0.1-0.7,0.2-0.9,0.2
		c-1.4,0.2-3.6,2.3-5,4.9c-0.9,1.7-0.7,1.9,0.4,0.3c1.2-1.8,3.4-3.9,4.7-4.6c0.7-0.3,1.2-0.7,1.2-0.8C20.1,60.9,20.1,60.9,20,60.9z
		 M22.1,61.2c-0.2,0,0.3,0.9,1.3,2.4c0.9,1.2,2,2.9,2.5,4c1,1.8,1.6,2.3,0.7,0.6c-1.7-3.3-2.6-4.9-3.5-5.9
		C22.5,61.5,22.2,61.2,22.1,61.2z M49.6,61.3c0.5,0,0.9,0.1,1.3,0.4c0.3,0.3,0.5,0.3,0.5,0.1c0-0.2,0.1-0.2,0.2-0.1
		c0.1,0.1,0,0.3-0.2,0.5c-0.5,0.4-1.6,0.2-1.6-0.3c0-0.2-0.1-0.3-0.2-0.3c-0.4,0-0.9,0.7-0.8,1.1c0.1,0.2,0,0.3-0.1,0.3
		c-0.1,0-0.3,0.1-0.3,0.2c0,0.4,0.9,0.3,1-0.1c0.1-0.2,0.4-0.4,0.7-0.4c0.6,0,0.9,0.4,0.9,1.2c0,0.4-0.1,0.4-0.8,0.4
		c-0.4,0-0.9,0-1.2,0.1c-0.2,0.1-0.5,0.1-0.7-0.1c-0.3-0.3-0.4-1.3-0.1-1.5c0.1-0.1,0.2-0.3,0.1-0.6C48.1,61.7,48.8,61.3,49.6,61.3z
		 M61.3,62.3c0.1,0,0.1,0,0.2,0.1c0.1,0.1,0,0.3-0.1,0.4c-0.2,0.2-0.3,0.2-0.4,0C60.8,62.6,61,62.3,61.3,62.3z M51.3,62.7
		c0.1,0,0.3,0.1,0.3,0.2c0.1,0.1,0,0.2-0.2,0.2c-0.2,0-0.3-0.1-0.3-0.2C51.1,62.8,51.2,62.7,51.3,62.7z M60.1,63.7
		c0.1,0,0.3,0.1,0.4,0.3c0.2,0.4,0,0.5-0.3,0.1C60,63.8,59.9,63.7,60.1,63.7z M61.5,63.9c-0.1,0-0.2,0.1-0.2,0.2s0.2,0.2,0.4,0.2
		c0.2,0,0.3-0.1,0.2-0.2S61.6,63.9,61.5,63.9z M20.8,64.2c0.2,0,0.6,1.5,0.9,2.8c0,0.2,0.1,0.4,0.1,0.4c0,0,0.1,0.2,0.1,0.5
		c0.1,0.7,1,2.3,1.8,3.5l0.7,1l1-0.3c0.5-0.2,1.4-0.3,2-0.3s1.3-0.1,1.7-0.3c0.8-0.3,2.1-1.5,2.6-2.5c0.2-0.4,0.4-0.6,0.5-0.5
		c0.1,0.1,0.4,1.1,0.7,2.2l0.5,2L32.4,74c-1.3,1.4-3.7,5.4-3.7,6c0,0.3-0.3,0.6-0.9,0.9c-1.4,0.6-4.8,2.7-5.5,3.4
		c-0.3,0.3-0.7,0.6-0.8,0.6c-0.3,0-3.1,2.3-4.7,4c-0.9,0.9-1.9,2.1-2.2,2.6l-0.6,1l0.1-1c0.3-2.1,0.6-5.7,0.9-10
		c0.2-3.2,0.4-4.7,0.6-5.1c0.2-0.3,0.3-0.5,0.2-0.5c-0.1,0,0.1-0.5,0.5-1.1c0.3-0.6,0.6-1.2,0.6-1.3c0-0.1,0.2-0.6,0.5-1.2
		c0.3-0.6,0.8-1.9,1.3-3C20.2,65,20.6,64.2,20.8,64.2z M47.9,64.4c0.1,0,0.1,0,0.2,0.1c0.1,0.1,0,0.2-0.1,0.3
		c-0.1,0.1-0.3,0.4-0.4,0.6c-0.1,0.5-0.1,0.4-0.2-0.1C47.3,65,47.7,64.4,47.9,64.4z M46.4,64.5c0.1,0,0.1,0.1,0.2,0.1
		c0.2,0.2,0.4,0.5,0.4,0.7c0,0.4-0.3,0.6-0.6,0.3c-0.1-0.1-0.2-0.4-0.2-0.7C46.3,64.6,46.3,64.5,46.4,64.5z M55.4,64.7
		c-0.5,0-0.5,0.3-0.2,0.8c0.2,0.3,0.2,0.3,0.4,0C55.9,65,55.8,64.7,55.4,64.7z M51,64.9C51,64.9,51.1,64.9,51,64.9
		c0,0.1-0.2,0.3-0.4,0.5c-0.3,0.2-0.5,0.3-0.5,0.2c0-0.1,0.2-0.4,0.5-0.5C50.8,65,50.9,65,51,64.9z M18.2,65.6
		C18.2,65.6,18.2,65.6,18.2,65.6c0.1,0.2-0.3,0.9-0.8,1.7c-0.5,0.7-1.3,2.1-1.7,3c-1,1.9-1,2-2.5,4.5c-0.6,1-1.1,1.9-1.1,2
		s-0.2,0.4-0.5,0.6c-0.3,0.2-0.5,0.5-0.5,0.6c0,0.1-0.9,1.3-2,2.6c-4.5,5.5-5.7,7.1-5.8,8.2c0,0.3-0.1,0.5-0.1,0.6
		c0,0-0.1,0.2-0.1,0.3c-0.1,0.7-0.4,0.4-1.1-0.9C1.7,87.9,1,86,0.9,86c-0.1,0-0.1,0-0.2,0L1,86c-0.4-1.1-0.2-7.1,0.3-9.1
		c0.5-2.2,0.5-2.3,1.6-4.7c0.7-1.5,1.2-2.1,2.4-3.1c0.9-0.7,1.9-1.5,2.4-1.7c0.5-0.2,0.8-0.5,0.8-0.6s0.1-0.2,0.2-0.2
		c0.1,0,0.3,0.8,0.4,1.8c0.4,4.4,1.6,5.5,3.6,3.2c0.6-0.6,1-1.2,1-1.3c0-0.1,0.3-0.6,0.7-1.1c0.4-0.5,0.7-1,0.8-1.2
		C15.4,67.5,17.7,65.6,18.2,65.6z M58.8,66.1c-0.2,0-0.4,0.2-0.4,0.4c0,0.3,0.1,0.3,0.4,0.1c0.2-0.2,0.4-0.3,0.4-0.4
		C59.1,66.1,59,66.1,58.8,66.1z M55.2,67.1C55.1,67.1,55.1,67.1,55.2,67.1c-0.4,0.2-0.4,1.2,0,1.5c0.2,0.2,0.2,0.3,0,0.4
		c-0.1,0.1-0.2,0.1-0.2,0c0-0.1,0-0.2-0.2-0.3c-0.1,0-0.2,0.1-0.2,0.2s-0.1,0.3-0.3,0.2c-0.3-0.1-0.4,0.9-0.1,1.2
		c0.2,0.2,0.6,0.2,0.6,0c0-0.1,0.2-0.2,0.5-0.2c0.4,0,0.5-0.1,0.6-0.9c0-0.5-0.1-0.9-0.2-0.9c-0.1,0-0.2-0.3-0.2-0.7
		C55.3,67.3,55.3,67.1,55.2,67.1z M51.8,67.3c0,0-0.1,0.1-0.1,0.2c0,0.2,0.2,0.4,0.5,0.4c0.3,0,0.5-0.1,0.5-0.2
		c0-0.1-0.1-0.2-0.2-0.1c-0.1,0.1-0.3,0-0.5-0.1C52,67.4,51.9,67.3,51.8,67.3z M49.9,67.5c-0.1,0-0.2,0.1-0.1,0.2
		c0.1,0.1,0.2,0.2,0.3,0.2c0.1,0,0.1-0.1,0.1-0.2C50.1,67.6,50,67.5,49.9,67.5z M52.4,68.7C52.3,68.7,52.3,68.7,52.4,68.7
		c-0.5,0.1-0.7,0.4-0.5,0.6c0.1,0.1,0.1,0,0-0.1c-0.1-0.1,0-0.3,0.2-0.3c0.4,0,0,0.5-0.4,0.5c-0.2,0-0.3,0.1-0.2,0.3
		c0,0.2-0.1,0.3-0.3,0.3s-0.3-0.1-0.2-0.1s0-0.3-0.2-0.5c-0.3-0.3-0.5-0.3-0.9-0.1c-0.5,0.2-0.5,0.3,0.4,0.6c0.5,0.2,0.9,0.5,1,0.6
		c0.1,0.1,0.4,0.2,0.8,0.2c0.7,0,0.7,0,0.7-1C52.7,68.9,52.7,68.7,52.4,68.7z M54.9,71c0,0-0.1,0.1-0.3,0.2
		c-0.2,0.2-0.5,0.2-0.6,0.1c-0.1-0.1,0,0,0.2,0.3c0.2,0.3,0.3,0.6,0.2,0.7c-0.1,0.1,0,0.1,0.1,0c0.2-0.1,0.2-0.3,0.1-0.4
		c-0.2-0.2-0.2-0.4,0-0.6C54.8,71.1,54.9,71,54.9,71z M52.1,71.8c-0.2,0-0.3,0.1-0.3,0.2c0,0.1,0.1,0.2,0.2,0.2
		c0.1,0,0.3-0.1,0.3-0.2C52.4,71.9,52.3,71.8,52.1,71.8z"/>
</g>
</svg>
