<?xml version="1.0" encoding="utf-8"?>
<!-- Generator: Adobe Illustrator 19.2.1, SVG Export Plug-In . SVG Version: 6.00 Build 0)  -->
<svg version="1.1" id="Слой_1" xmlns="http://www.w3.org/2000/svg" xmlns:xlink="http://www.w3.org/1999/xlink" x="0px" y="0px"
	 width="88px" height="25.8px" viewBox="0 0 88 25.8" enable-background="new 0 0 88 25.8" xml:space="preserve">
<g>
	<path id="SCHOOL" fill="#555555" d="M8.2,15.4c-0.3-0.5-0.6-0.9-0.9-1.2c-0.4-0.3-1.1-0.8-2.4-0.8c-2.2,0-3.5,1.5-3.5,3.2
		c0,1.8,1.5,2.6,2.4,3l1.1,0.5c0.8,0.3,1.7,0.8,1.7,2c0,1.2-0.9,2-2,2c-0.7,0-1.2-0.3-1.6-0.7c-0.3-0.4-0.5-0.9-0.5-1.5l-1.8,0.4
		c0.1,0.8,0.4,1.6,1,2.3c0.6,0.7,1.4,1.2,2.8,1.2c2.2,0,3.9-1.6,3.9-3.8c0-1.4-0.6-2.6-2.8-3.5L4.5,18c-1.2-0.5-1.3-1.1-1.3-1.5
		c0-0.8,0.6-1.4,1.7-1.4c0.5,0,0.9,0.1,1.3,0.4c0.3,0.2,0.4,0.5,0.5,0.8L8.2,15.4z M23.3,14.2c-1-0.7-2.1-0.9-3.2-0.9
		c-1.7,0-3.1,0.4-4.3,1.6c-1,1-1.9,2.5-1.9,4.7c0,1.7,0.5,3.2,1.9,4.5c0.7,0.7,2.1,1.7,4.2,1.7c0.8,0,2.1-0.2,3.3-0.9v-2.2
		c-0.7,0.6-1.8,1.4-3.2,1.4c-2.5,0-4.4-2-4.4-4.5c0-2.6,1.8-4.6,4.4-4.6c0.7,0,1.9,0.1,3.2,1.3V14.2z M31,13.6h-1.8v12H31v-5.5h5.1
		v5.5H38v-12h-1.8v4.7H31V13.6z M50.1,13.4c-3.6,0-6.2,2.7-6.2,6.2c0,3.5,2.6,6.2,6.2,6.2s6.2-2.7,6.2-6.2
		C56.4,16.1,53.7,13.4,50.1,13.4L50.1,13.4z M50.1,24.1c-2.6,0-4.4-1.9-4.4-4.5c0-2.7,1.8-4.5,4.4-4.5c2.6,0,4.4,1.9,4.4,4.5
		C54.5,22.2,52.7,24.1,50.1,24.1L50.1,24.1z M67.9,13.4c-3.6,0-6.2,2.7-6.2,6.2c0,3.5,2.6,6.2,6.2,6.2c3.6,0,6.2-2.7,6.2-6.2
		C74.2,16.1,71.5,13.4,67.9,13.4L67.9,13.4z M67.9,24.1c-2.6,0-4.4-1.9-4.4-4.5c0-2.7,1.8-4.5,4.4-4.5c2.6,0,4.4,1.9,4.4,4.5
		C72.3,22.2,70.5,24.1,67.9,24.1L67.9,24.1z M80.1,13.6v12h5.3v-1.7h-3.5V13.6H80.1z"/>
	<g enable-background="new    ">
		<path fill="#555555" d="M0,0.3h1.2L2.6,4c0.1,0.2,0.2,0.5,0.2,0.6C2.8,4.8,2.9,5,2.9,5.1C3.1,4.7,3.2,4.4,3.3,4c0,0,0-0.1,0-0.1
			L4.8,0l1.5,4c0.1,0.2,0.1,0.4,0.2,0.6c0.1,0.2,0.1,0.4,0.2,0.6c0-0.1,0.1-0.3,0.1-0.5C6.9,4.5,7,4.2,7.1,4l1.4-3.7h1.2L6.8,7.9
			L5.2,3.7C5.1,3.5,5,3.3,5,3.2C4.9,3,4.8,2.8,4.8,2.7C4.7,2.9,4.7,3.1,4.6,3.2C4.6,3.4,4.5,3.6,4.5,3.7L2.8,7.9L0,0.3z"/>
		<path fill="#555555" d="M16.9,7.6V0.3H21v1h-2.9v1.8H21v1h-2.9v2.4H21v1.1H16.9z"/>
		<path fill="#555555" d="M28.9,7.6V0.3h1.6c1,0,1.8,0.1,2.2,0.2c0.4,0.1,0.8,0.3,1.1,0.5c0.4,0.3,0.7,0.7,1,1.2
			c0.2,0.5,0.3,1.1,0.3,1.7c0,0.6-0.1,1.2-0.3,1.7c-0.2,0.5-0.5,0.9-1,1.2c-0.3,0.2-0.7,0.4-1.1,0.5c-0.4,0.1-1,0.2-1.9,0.2h-0.3
			H28.9z M30.1,6.5h1c0.5,0,1,0,1.2-0.1C32.6,6.3,32.8,6.2,33,6c0.3-0.2,0.5-0.5,0.6-0.9c0.1-0.4,0.2-0.8,0.2-1.2
			c0-0.5-0.1-0.9-0.2-1.2c-0.1-0.4-0.3-0.6-0.6-0.9c-0.2-0.2-0.5-0.3-0.7-0.4c-0.3-0.1-0.7-0.1-1.3-0.1h-0.4h-0.4V6.5z"/>
		<path fill="#555555" d="M42.9,7.6V0.3h1.6c1,0,1.8,0.1,2.2,0.2c0.4,0.1,0.8,0.3,1.1,0.5c0.4,0.3,0.7,0.7,1,1.2s0.3,1.1,0.3,1.7
			c0,0.6-0.1,1.2-0.3,1.7c-0.2,0.5-0.5,0.9-1,1.2c-0.3,0.2-0.7,0.4-1.1,0.5c-0.4,0.1-1,0.2-1.9,0.2h-0.3H42.9z M44.1,6.5h1
			c0.5,0,1,0,1.2-0.1C46.6,6.3,46.8,6.2,47,6c0.3-0.2,0.5-0.5,0.6-0.9c0.1-0.4,0.2-0.8,0.2-1.2c0-0.5-0.1-0.9-0.2-1.2
			c-0.1-0.4-0.3-0.6-0.6-0.9c-0.2-0.2-0.5-0.3-0.7-0.4C46,1.4,45.6,1.4,45,1.4h-0.4h-0.4V6.5z"/>
		<path fill="#555555" d="M57,7.6V0.3h1.2v7.3H57z"/>
		<path fill="#555555" d="M66.4,7.6V0L71,4.5c0.1,0.1,0.3,0.3,0.4,0.4c0.1,0.1,0.3,0.3,0.4,0.5V0.3h1.1v7.6l-4.7-4.5
			c-0.1-0.1-0.2-0.3-0.4-0.4s-0.2-0.3-0.3-0.4v5.1H66.4z"/>
		<path fill="#555555" d="M85.1,3.8H88c0,0,0,0.1,0,0.2c0,0.2,0,0.4,0,0.5c0,1-0.3,1.8-0.9,2.4s-1.4,0.9-2.5,0.9
			c-0.6,0-1.1-0.1-1.6-0.3s-0.9-0.4-1.2-0.8C81.5,6.4,81.2,6,81,5.5c-0.2-0.5-0.3-1-0.3-1.5c0-0.6,0.1-1.1,0.3-1.5
			c0.2-0.5,0.5-0.9,0.8-1.2c0.4-0.3,0.8-0.6,1.3-0.8s1-0.3,1.5-0.3c0.6,0,1.1,0.1,1.5,0.3c0.5,0.2,0.9,0.5,1.2,1l-0.9,0.7
			c-0.2-0.3-0.5-0.5-0.8-0.6c-0.3-0.1-0.7-0.2-1-0.2c-0.8,0-1.4,0.3-1.9,0.8c-0.5,0.5-0.7,1.2-0.7,2c0,0.8,0.2,1.5,0.7,2
			c0.5,0.5,1.1,0.8,1.9,0.8c0.7,0,1.2-0.2,1.6-0.5c0.4-0.3,0.6-0.7,0.6-1.3V4.8h-1.8V3.8z"/>
	</g>
</g>
</svg>
