<?xml version="1.0" encoding="utf-8"?>
<!-- Generator: Adobe Illustrator 19.2.1, SVG Export Plug-In . SVG Version: 6.00 Build 0)  -->
<svg version="1.1" id="Layer_1" xmlns="http://www.w3.org/2000/svg" xmlns:xlink="http://www.w3.org/1999/xlink" x="0px" y="0px"
	 width="61px" height="44.7px" viewBox="-49 209.4 61 44.7" enable-background="new -49 209.4 61 44.7" xml:space="preserve">
<g>
	<path fill="#555555" d="M-6.3,209.4h-3.1c-1.4,0-2.6,1-2.9,2.4c-2.3,1.2-13.9,6.6-29,8.6c-0.9,0.1-1.6,0.6-2.1,1.2H-46
		c-1.7,0-3,1.3-3,3v6.1c0,1.7,1.3,3,3,3h2.7c0.5,0.7,1.2,1.1,2.1,1.2c0.2,0,0.3,0,0.5,0.1l4.7,16.9c0.4,1.3,1.5,2.2,2.9,2.2h5.6
		c0,0,0,0,0,0c0,0,0,0,0,0h1c0.5,0,1-0.4,1-1c0-0.5-0.4-1-1-1h-0.3l-4.3-15.3c10,2.4,17.2,5.8,18.9,6.7c0.3,1.4,1.5,2.4,2.9,2.4h3.1
		c1.7,0,3-1.3,3-3v-30.6C-3.3,210.8-4.6,209.4-6.3,209.4z M-47.1,230.7v-6.1c0-0.6,0.5-1.1,1.1-1.1h2.1v8.3H-46
		C-46.6,231.8-47.1,231.3-47.1,230.7z M-28.9,252.2h-4.3c-0.5,0-0.9-0.3-1-0.8l-4.5-16.1c1.9,0.3,3.7,0.7,5.4,1L-28.9,252.2z
		 M-5.2,243c0,0.6-0.5,1.1-1.1,1.1h-3.1c-0.6,0-1.1-0.5-1.1-1.1v0c0,0,0,0,0,0v-22.4c0-0.5-0.4-1-1-1s-1,0.4-1,1v20.9
		c-3.8-1.8-14.7-6.5-28.7-8.4c-0.5-0.1-1-0.5-1-1.1v-8.6c0-0.5,0.4-1,1-1.1c14-1.8,25-6.6,28.7-8.4v2.5c0,0.5,0.4,1,1,1s1-0.4,1-1
		v-4.1c0,0,0,0,0,0v0c0-0.6,0.5-1.1,1.1-1.1h3.1c0.6,0,1.1,0.5,1.1,1.1V243z"/>
	<path fill="#555555" d="M11,226.7H0.9c-0.5,0-1,0.4-1,1c0,0.5,0.4,1,1,1H11c0.5,0,1-0.4,1-1C12,227.2,11.6,226.7,11,226.7z"/>
	<path fill="#555555" d="M7,218.9c0.1,0,0.3,0,0.4-0.1l1-0.4c0.5-0.2,0.7-0.8,0.5-1.3c-0.2-0.5-0.8-0.7-1.3-0.5l-1,0.4
		c-0.5,0.2-0.7,0.8-0.5,1.3C6.2,218.7,6.6,218.9,7,218.9z"/>
	<path fill="#555555" d="M0.9,221.5c0.1,0,0.3,0,0.4-0.1l3.1-1.3c0.5-0.2,0.7-0.8,0.5-1.3c-0.2-0.5-0.8-0.7-1.3-0.5l-3.1,1.3
		c-0.5,0.2-0.7,0.8-0.5,1.3C0.1,221.3,0.5,221.5,0.9,221.5z"/>
	<path fill="#555555" d="M8.4,237l-1-0.4c-0.5-0.2-1,0-1.3,0.5s0,1,0.5,1.3l1,0.4c0.1,0.1,0.3,0.1,0.4,0.1c0.4,0,0.7-0.2,0.9-0.6
		C9.1,237.8,8.8,237.2,8.4,237z"/>
	<path fill="#555555" d="M4.3,235.2l-3.1-1.3c-0.5-0.2-1,0-1.3,0.5c-0.2,0.5,0,1,0.5,1.3l3.1,1.3c0.1,0.1,0.3,0.1,0.4,0.1
		c0.4,0,0.7-0.2,0.9-0.6C5,236,4.8,235.5,4.3,235.2z"/>
</g>
</svg>
