<?xml version="1.0" encoding="utf-8"?>
<!-- Generator: Adobe Illustrator 19.2.1, SVG Export Plug-In . SVG Version: 6.00 Build 0)  -->
<svg version="1.1" id="Layer_1" xmlns="http://www.w3.org/2000/svg" xmlns:xlink="http://www.w3.org/1999/xlink" x="0px" y="0px"
	 width="54px" height="54px" viewBox="-48.9 141 54 54" enable-background="new -48.9 141 54 54" xml:space="preserve">
<path fill="#555555" d="M3.6,142.4c-1.9-1.9-5.5-1.9-10,0c-4.3,1.9-9,5.3-13.3,9.6c-2.3,2.3-4.4,4.8-6.1,7.3
	c-0.1,0.1-0.1,0.3-0.1,0.5v2.3c0,0.2-0.1,0.3-0.3,0.3h-2c-0.2,0-0.4,0.1-0.6,0.2c-0.7,0.6-1.3,1.2-2,1.9c-3.9,3.9-7,8.2-8.6,12
	c-0.7,1.7-1.2,3.2-1.3,4.5l-1.7,6.4l-1.5,1.5l0.4-2.5c0.1-0.5-0.2-0.9-0.7-1c-0.5-0.1-0.9,0.2-1,0.7l-0.8,4.6c0,0.1,0,0.1,0,0.1
	l-2.7,2.7c-0.3,0.3-0.3,0.8,0,1.2c0.2,0.2,0.4,0.2,0.6,0.2s0.4-0.1,0.6-0.2l2.7-2.7c0.1,0,0.1,0,0.2,0l4.6-0.8
	c0.5-0.1,0.8-0.5,0.7-1c-0.1-0.5-0.5-0.8-1-0.7l-2.5,0.4l1.6-1.6l6.4-1.7c1.3-0.1,2.9-0.6,4.6-1.3c3.9-1.7,8.1-4.7,12-8.6
	c0.6-0.6,1.3-1.3,1.9-2c0.1-0.2,0.2-0.3,0.2-0.6v-2c0-0.2,0.1-0.3,0.3-0.3h2.3c0.2,0,0.3-0.1,0.5-0.1c2.5-1.7,4.9-3.8,7.3-6.1
	c4.4-4.4,7.9-9.3,9.7-13.7c0.2-0.4,0-0.9-0.4-1.1c-0.4-0.2-0.9,0-1.1,0.4c-0.9,2.1-2.2,4.4-3.8,6.7l-4-0.1c-0.5,0-0.8,0.4-0.8,0.8
	c0,0.5,0.4,0.8,0.8,0.8l2.8,0c-1.3,1.6-2.7,3.3-4.3,4.8c-0.3,0.3-0.7,0.7-1,1l-10-0.2l6-6c0.3,0.1,0.6,0.2,0.9,0.2l2.5,0
	c0,0,0,0,0,0c0.5,0,0.8-0.4,0.8-0.8c0-0.5-0.4-0.8-0.8-0.8l-2,0l6.3-6.3c0.3-0.3,0.3-0.8,0-1.2c-0.3-0.3-0.8-0.3-1.2,0l-6.2,6.2
	l-0.1-9.1c2.1-1.5,4.2-2.8,6.3-3.6c3.8-1.6,6.8-1.8,8.2-0.4c1.2,1.2,1.1,3.4,0.7,5c-0.1,0.4,0.2,0.9,0.6,1c0.4,0.1,0.9-0.2,1-0.6
	C5.4,146.1,5,143.8,3.6,142.4z M-37.9,177.1c0.6-1.4,1.4-2.9,2.4-4.4l0.1,6.9c0,0.2,0,0.4,0.1,0.6l-2.2,2.2l-1.5-1.5
	C-38.9,179.8-38.6,178.5-37.9,177.1z M-40.5,186.6l1-3.8l2.8,2.8L-40.5,186.6z M-31,184c-1.4,0.6-2.7,1-3.8,1.1l-1.5-1.5l2.2-2.2
	c0.2,0.1,0.5,0.1,0.7,0.1l2.2,0c0,0,0,0,0,0c0.5,0,0.8-0.4,0.8-0.8c0-0.5-0.4-0.8-0.8-0.8l-1.4,0l4.3-4.3c0.3,0.1,0.6,0.2,1,0.2
	l7.6,0.1c-1.5,1.5-3.1,2.9-4.7,4.1L-28,180c-0.5,0-0.8,0.4-0.8,0.8c0,0.5,0.4,0.8,0.8,0.8l1.3,0C-28.2,182.6-29.6,183.4-31,184z
	 M-18.6,167.1l8.7,0.1c-1.3,1.2-2.7,2.2-4,3.2h-2c-1.1,0-1.9,0.9-1.9,1.9v1.7c-0.1,0.1-0.1,0.2-0.2,0.2l-8.8-0.1l4.1-4.1
	c0.3-0.3,0.3-0.8,0-1.2c-0.3-0.3-0.8-0.3-1.2,0l-4.1,4.1l0-0.5c0-0.5-0.4-0.8-0.8-0.8c-0.5,0-0.8,0.4-0.8,0.8l0,1.1
	c0,0.3,0.1,0.6,0.2,0.9l-4.3,4.3l-0.1-8.3c1.2-1.6,2.6-3.2,4.1-4.7l0.1,3.5c0,0.5,0.4,0.8,0.8,0.8c0,0,0,0,0,0
	c0.5,0,0.8-0.4,0.8-0.8l-0.1-5.1c0,0,0.1-0.1,0.1-0.1h1.7c1.1,0,1.9-0.9,1.9-1.9v-2c1-1.4,2.1-2.8,3.3-4.2l0.1,8.9
	c0,0.3,0.1,0.6,0.2,0.9l-0.8,0.8c-0.3,0.3-0.3,0.8,0,1.2c0.2,0.2,0.4,0.2,0.6,0.2c0.2,0,0.4-0.1,0.6-0.2l0.7-0.7
	C-19.3,167-19,167.1-18.6,167.1z M-13.5,157.5c0,0.3,0.1,0.5,0.2,0.8l-6,6l-0.2-10.1c0.3-0.3,0.6-0.6,0.9-0.9
	c1.6-1.6,3.3-3.1,4.9-4.4L-13.5,157.5z"/>
</svg>
