<?xml version="1.0" encoding="utf-8"?>
<!-- Generator: Adobe Illustrator 21.1.0, SVG Export Plug-In . SVG Version: 6.00 Build 0)  -->
<svg version="1.1" id="Layer_1" xmlns="http://www.w3.org/2000/svg" xmlns:xlink="http://www.w3.org/1999/xlink" x="0px" y="0px"
	 viewBox="0 0 31 31" style="enable-background:new 0 0 31 31;" xml:space="preserve">
<style type="text/css">
	.st0{fill:#D42428;}
	.st1{fill:#FFFFFF;}
	.st2{fill:#4D76A1;}
	.st3{fill-rule:evenodd;clip-rule:evenodd;fill:#FFFFFF;}
</style>
<g>
	<g>
		<path class="st0" d="M-24.5-23.8c0,8.3-6.7,15-15,15c-8.3,0-15-6.7-15-15c0-8.3,6.7-15,15-15C-31.2-38.8-24.5-32-24.5-23.8
			L-24.5-23.8z M-24.5-23.8"/>
	</g>
	<path class="st1" d="M-31.6-26.7c0-1.3-1-2.3-2.3-2.3h-10.7c-1.3,0-2.3,1-2.3,2.3v6.1c0,1.3,1,2.3,2.3,2.3h10.7
		c1.3,0,2.3-1,2.3-2.3L-31.6-26.7L-31.6-26.7z M-40.8-21v-5.7l4.3,2.9L-40.8-21z M-40.8-21"/>
</g>
<g>
	<path class="st2" d="M31,15.2c0,8.3-6.7,15-15,15s-15-6.7-15-15c0-8.3,6.7-15,15-15S31,7,31,15.2L31,15.2z M31,15.2"/>
	<path class="st3" d="M15.4,21.8h1.2c0,0,0.4,0,0.5-0.2c0.2-0.2,0.2-0.5,0.2-0.5s0-1.6,0.7-1.8c0.7-0.2,1.7,1.5,2.6,2.2
		c0.7,0.5,1.3,0.4,1.3,0.4l2.6,0c0,0,1.4-0.1,0.7-1.2c-0.1-0.1-0.4-0.8-2-2.3c-1.6-1.5-1.4-1.3,0.6-3.9c1.2-1.6,1.7-2.6,1.5-3
		c-0.1-0.4-1-0.3-1-0.3l-3,0c0,0-0.2,0-0.4,0.1c-0.2,0.1-0.3,0.3-0.3,0.3s-0.5,1.2-1.1,2.3c-1.3,2.2-1.8,2.4-2.1,2.2
		c-0.5-0.3-0.4-1.3-0.4-2c0-2.2,0.3-3.1-0.6-3.3c-0.3-0.1-0.6-0.1-1.4-0.1c-1.1,0-2,0-2.5,0.3c-0.3,0.2-0.6,0.5-0.4,0.6
		c0.2,0,0.6,0.1,0.9,0.4c0.3,0.4,0.3,1.3,0.3,1.3s0.2,2.6-0.4,2.9c-0.4,0.2-0.9-0.2-2.1-2.3c-0.6-1-1.1-2.2-1.1-2.2
		s-0.1-0.2-0.2-0.3c-0.2-0.1-0.5-0.2-0.5-0.2l-2.8,0c0,0-0.4,0-0.6,0.2c-0.1,0.2,0,0.5,0,0.5S8,17,10.5,19.6
		C12.8,22,15.4,21.8,15.4,21.8L15.4,21.8z M15.4,21.8"/>
</g>
</svg>
