<?xml version="1.0" encoding="utf-8"?>
<!-- Generator: Adobe Illustrator 21.1.0, SVG Export Plug-In . SVG Version: 6.00 Build 0)  -->
<svg version="1.1" id="Layer_1" xmlns="http://www.w3.org/2000/svg" xmlns:xlink="http://www.w3.org/1999/xlink" x="0px" y="0px"
	 viewBox="0 0 56 39" style="enable-background:new 0 0 56 39;" xml:space="preserve">
<style type="text/css">
	.st0{fill:#D42428;}
	.st1{fill:#FFFFFF;}
	.st2{fill:#4D76A1;}
	.st3{fill-rule:evenodd;clip-rule:evenodd;fill:#FFFFFF;}
	.st4{fill:#231F20;}
</style>
<g>
	<g>
		<path class="st0" d="M-2.5-6.8c0,8.3-6.7,15-15,15c-8.3,0-15-6.7-15-15c0-8.3,6.7-15,15-15C-9.2-21.8-2.5-15-2.5-6.8L-2.5-6.8z
			 M-2.5-6.8"/>
	</g>
	<path class="st1" d="M-9.6-9.7c0-1.3-1-2.3-2.3-2.3h-10.7c-1.3,0-2.3,1-2.3,2.3v6.1c0,1.3,1,2.3,2.3,2.3h10.7c1.3,0,2.3-1,2.3-2.3
		L-9.6-9.7L-9.6-9.7z M-18.8-4v-5.7l4.3,2.9L-18.8-4z M-18.8-4"/>
</g>
<g>
	<path class="st2" d="M-15,23.2c0,8.3-6.7,15-15,15s-15-6.7-15-15c0-8.3,6.7-15,15-15S-15,15-15,23.2L-15,23.2z M-15,23.2"/>
	<path class="st3" d="M-30.6,29.8h1.2c0,0,0.4,0,0.5-0.2c0.2-0.2,0.2-0.5,0.2-0.5s0-1.6,0.7-1.8c0.7-0.2,1.7,1.5,2.6,2.2
		c0.7,0.5,1.3,0.4,1.3,0.4l2.6,0c0,0,1.4-0.1,0.7-1.2c-0.1-0.1-0.4-0.8-2-2.3c-1.6-1.5-1.4-1.3,0.6-3.9c1.2-1.6,1.7-2.6,1.5-3
		c-0.1-0.4-1-0.3-1-0.3l-3,0c0,0-0.2,0-0.4,0.1c-0.2,0.1-0.3,0.3-0.3,0.3s-0.5,1.2-1.1,2.3c-1.3,2.2-1.8,2.4-2.1,2.2
		c-0.5-0.3-0.4-1.3-0.4-2c0-2.2,0.3-3.1-0.6-3.3c-0.3-0.1-0.6-0.1-1.4-0.1c-1.1,0-2,0-2.5,0.3c-0.3,0.2-0.6,0.5-0.4,0.6
		c0.2,0,0.6,0.1,0.9,0.4c0.3,0.4,0.3,1.3,0.3,1.3s0.2,2.6-0.4,2.9c-0.4,0.2-0.9-0.2-2.1-2.3c-0.6-1-1.1-2.2-1.1-2.2
		s-0.1-0.2-0.2-0.3c-0.2-0.1-0.5-0.2-0.5-0.2l-2.8,0c0,0-0.4,0-0.6,0.2c-0.1,0.2,0,0.5,0,0.5s2.2,5.2,4.7,7.8
		C-33.2,30-30.6,29.8-30.6,29.8L-30.6,29.8z M-30.6,29.8"/>
</g>
<g>
	<g>
		<g>
			<path class="st1" d="M48.8,1.4c-3.3,0-6,3.1-6,6c0,0.3-0.5,0.2-0.4,0.5c-3.6-3.8-8.3-5.7-14.1-5.7S17.8,4.1,14.2,7.9
				c0.1-0.3-0.4-0.1-0.4-0.5c0-2.9-2.7-6-6-6S1.5,4,1.5,6.9s3,5.7,6.3,5.7c1.3,0,2.4-0.3,3.4-0.9c-1.6,2.7-2.6,5.9-2.6,9.3
				c0,10.4,8.8,16.8,19.7,16.8S48,31.4,48,21c0-3.4-0.9-6.6-2.6-9.3c1,0.6,2.1,0.9,3.4,0.9c3.3,0,6.3-2.9,6.3-5.7S52.1,1.4,48.8,1.4
				z"/>
		</g>
		<g>
			<g>
				<path class="st4" d="M10.3,9.9c-0.4,0-0.7-0.3-0.7-0.7c0-1.6-0.4-2.6-1.1-3.2C7.4,5.3,5.8,6,5.8,6c-0.3,0.1-0.7,0-0.9-0.4
					C4.8,5.2,5,4.8,5.3,4.7c0.1,0,2.3-0.9,4,0.3C10.4,5.7,11,7.2,11,9.2C11,9.6,10.7,9.9,10.3,9.9z"/>
			</g>
			<g>
				<g>
					<path class="st4" d="M8.1,9.3C8.1,9.3,8,9.3,8.1,9.3c-0.2,0-0.2-0.1-0.3-0.2c-0.1-0.1-0.1-0.2,0-0.4c0.1-0.2,0.2-0.3,0.4-0.4
						c0-0.1,0-0.2,0-0.3L6.4,9.1c-0.1,0-0.2,0.1-0.3,0C6,9.1,6,9.1,5.9,9c-0.1-0.2-0.1-0.3,0-0.4c0,0,0,0-0.1-0.1c0-0.1,0-0.1,0-0.2
						C5.7,8,6,7.5,6.6,6.7C6.5,6.8,6.4,6.9,6.4,6.9C6,7.1,6,7.1,5.9,7.1c0,0-0.1,0-0.1-0.1c0,0-0.1,0-0.1,0.1C5.5,7.2,5.2,7.1,5.2,7
						c-0.1-0.2,0-0.4,0.1-0.5C7.7,5,7.7,5,7.9,5.1c0.1,0,0.2,0.1,0.2,0.2c0,0,0,0,0,0c0.1,0,0.1,0.1,0.1,0.1c0.2,0.3,0,0.4-0.7,1.2
						C7.5,6.8,7.3,7,7.1,7.2c0.2-0.1,0.2-0.1,0.3-0.1c0,0,0,0,0.1,0C8,6.8,8,6.8,8.2,6.9C8.3,6.9,8.4,7,8.4,7c0,0,0,0.1,0.1,0.1
						c0.1,0,0.1,0,0.2,0c0.1,0,0.2,0.1,0.2,0.2c0,0.1,0,0.1,0,0.3c0,0.2,0,0.3,0,0.4c0.2-0.1,0.4-0.2,0.7-0.3c0.1,0,0.2-0.1,0.3-0.1
						L10,7.5c0,0,0.1,0,0.1-0.1c0.4-0.2,0.5-0.3,0.6-0.4l0,0c0.2-0.1,0.4,0,0.5,0.1c0.1,0.2,0,0.4-0.1,0.5l0,0
						c-0.1,0.2-0.4,0.3-0.9,0.5C9.3,8.7,8.9,8.9,8.7,9L8.3,9.3C8.2,9.3,8.1,9.3,8.1,9.3z"/>
				</g>
			</g>
		</g>
		<g>
			<g>
				<path class="st1" d="M13.7,8.9c-0.1,0-0.1,0-0.2,0c-0.2,0-0.3-0.2-0.4-0.3c-0.2-0.4-0.2-1.2,0.1-2.6c-0.4,0.2-0.5,0.2-0.7,0.2
					c-0.2,0-0.3-0.2-0.4-0.3c-0.2-0.3-0.1-0.6,0-1.1c-0.2,0.1-0.4,0.3-0.6,0.4c-0.2,0.1-0.3,0.1-0.5,0.1c-0.2,0-0.3-0.2-0.4-0.3
					C10,4.1,9.1,2.4,8.6,1.4C8.4,1.6,8.1,1.7,7.9,1.8C6,3,5.9,3.1,5.5,3C5.4,3,5.2,2.8,5.1,2.7C4.9,2.4,5,2,5.4,1.8
					c0.1,0,0.1-0.1,0.2-0.1c0.3-0.1,1.1-0.7,1.6-1C8.7-0.2,8.7-0.2,9-0.1c0.2,0,0.3,0.2,0.4,0.3c0.1,0.2,1.3,2.3,1.9,3.4
					c1.5-0.9,1.6-0.9,1.8-0.8c0.2,0,0.3,0.2,0.4,0.3c0.2,0.3,0.1,0.6,0,1.1c0,0,0,0,0.1,0C13.8,4,14,3.9,14.2,4
					c0.2,0,0.3,0.2,0.4,0.3c0.1,0.2,0.1,0.4,0,1.2c-0.1,0.3-0.2,1-0.3,1.5c0.4-0.2,0.6-0.3,0.9-0.2c0.2,0,0.3,0.2,0.4,0.3
					c0.2,0.3,0.1,0.7-0.2,0.9c-0.1,0-0.2,0.1-0.2,0.1c-0.2,0.1-0.5,0.3-0.7,0.4C14.1,8.8,13.9,8.9,13.7,8.9z"/>
			</g>
			<g>
				<path class="st1" d="M40.7,8.8c-0.1,0-0.1,0-0.2,0c-0.2,0-0.3-0.2-0.4-0.3C40,8.4,40,8.4,40,8.3c-0.2-0.1-0.3-0.2-0.4-0.3
					c-0.3-0.5-0.1-1.1,0-1.8c0-0.1,0.1-0.3,0.1-0.5c-0.7,0.4-0.8,0.4-1.1,0.4c-0.2,0-0.3-0.2-0.4-0.3c0,0,0,0,0,0
					c-0.1,0-0.2,0-0.3,0c-0.1,0-0.2-0.1-0.3-0.2c-0.4,0.2-0.5,0.2-0.7,0.1c-0.2,0-0.3-0.2-0.4-0.3c-0.1-0.2-0.5-0.6-0.9-1
					c-0.3-0.3-0.7-0.7-0.9-1c-0.1,0.1-0.1,0.1-0.2,0.1c-0.5,0.4-0.7,0.5-1.1,0.5c-0.2,0-0.4-0.2-0.5-0.3c0,0,0,0,0-0.1
					c-0.5,0.3-0.7,0.4-1,0.3c-0.2,0-0.4-0.2-0.5-0.3c0,0,0,0,0,0c-0.1,0-0.1,0-0.2,0c-0.2,0-0.3-0.2-0.4-0.3
					c-0.1-0.2-0.1-0.4-0.1-0.7c-0.1,0-0.1,0.1-0.2,0.1c-1.7,1.1-2.1,1.3-2.5,1.2c-0.2,0-0.4-0.2-0.5-0.3c0-0.1-0.1-0.1-0.1-0.2
					c-0.1,0-0.2,0-0.3,0c-0.1,0-0.2-0.1-0.3-0.1c-0.3-0.1-1.6-0.5-2.7-0.7c-0.3,0.2-1,0.6-1.4,1c-1.6,1.1-2.1,1.4-2.5,1.3
					c-0.2,0-0.4-0.2-0.5-0.4c-0.2-0.3-0.1-0.7,0.2-0.9c0.1-0.1,0.3-0.1,0.4-0.1c0.3-0.2,1.1-0.7,1.6-1.1c1.5-1,1.9-1.3,2.4-1.2
					c0,0,0.1,0,0.1,0.1c1.6,0.4,2.4,0.6,2.8,0.8c0.2-0.1,0.5-0.3,0.6-0.4c0.7-0.5,1-0.7,1.4-0.6c0.2,0,0.4,0.2,0.5,0.3
					c0,0.1,0.1,0.1,0.1,0.2c1.1-0.7,1.3-0.8,1.6-0.8c0.2,0,0.3,0.2,0.4,0.3c0.1,0.2,0.2,0.4,0.1,0.7c0.1-0.1,0.2-0.1,0.2-0.2
					c1-0.6,1.1-0.7,1.4-0.6c0.1,0,0.3,0.1,0.4,0.2C34.4,1,34.5,1,34.7,1c0.2,0,0.4,0.2,0.5,0.3c0.1,0.1,0.2,0.3,0.1,0.7
					c0,0,0.1,0.1,0.1,0.1c0.2,0.3,0.7,0.8,1.1,1.3C36.7,3.7,37,4,37.2,4.2c0.3-0.2,0.7-0.5,1.1-0.7c0.2-0.1,0.3-0.1,0.5-0.1
					c0.1,0,0.3,0.1,0.3,0.2c0.4-0.2,0.5-0.2,0.7-0.2c0.2,0,0.3,0.2,0.4,0.3c0,0,0,0.1,0.1,0.1c0,0,0.1,0,0.1,0
					c0.2,0,0.3,0.2,0.4,0.3c0.4,0.6,0.2,1.4,0,2.2c0,0,0,0,0,0c0.3-0.2,0.5-0.3,0.7-0.4c1.2-0.7,1.2-0.7,1.5-0.6
					c0.2,0,0.3,0.2,0.4,0.3c0.2,0.4,0.1,0.7-0.4,1c0,0.1,0,0.2,0,0.3c-0.1,0.2-0.3,0.4-0.5,0.6c-0.2,0.4-0.7,0.6-1.4,0.9
					c0,0,0,0,0,0C40.9,8.8,40.8,8.8,40.7,8.8z"/>
			</g>
			<g>
				<path class="st1" d="M41.4,8.8c-0.1,0-0.1,0-0.2,0c-0.2,0-0.3-0.2-0.4-0.3c-0.2-0.4-0.1-0.7,0.3-1c0.1-0.1,0.2-0.3,0.3-0.4
					C41.5,7.1,41.6,7,41.7,7c0.1-0.1,0.4-0.3,0.6-0.4c0.6-0.5,1-0.8,1.4-0.7C43.8,6,43.9,6,44,6.1c0.2,0,0.3,0.2,0.4,0.3
					c0.2,0.3,0.1,0.7-0.2,0.9l-2.4,1.4C41.6,8.8,41.5,8.8,41.4,8.8z"/>
			</g>
			<g>
				<path class="st1" d="M42.1,7.5c-0.1,0-0.1,0-0.2,0c-0.2,0-0.3-0.2-0.4-0.3c-0.5-0.9,0.4-1.7,2-2.8c-0.2,0.1-0.5,0-0.7-0.2
					c-0.2-0.3-0.2-0.7,0.1-0.9c1.6-1.4,4.5-3.6,5.7-3.4c0.3,0.1,0.5,0.2,0.7,0.5c0.8,1.4-1.4,2.8-3.9,4.4c-0.2,0.2-0.5,0.3-0.8,0.5
					c0,0,0,0.1,0.1,0.1c0.2,0.3,0.1,0.7-0.2,0.9c-0.1,0-0.1,0.1-0.2,0.1c-0.2,0.1-0.9,0.5-1.2,0.7C42.4,7.4,42.2,7.5,42.1,7.5z
					 M47.7,1.4c-0.9,0.5-2.5,1.6-3.8,2.7c0.2-0.2,0.5-0.3,0.7-0.5C45.6,3,47,2.1,47.7,1.4z"/>
			</g>
			<g>
				<path class="st1" d="M53.3,10.9c-0.1,0-0.1,0-0.2,0c-0.2,0-0.4-0.2-0.4-0.3c-0.2-0.3-0.4-0.7,0.8-1.8c-0.3-1.1,0-3.2,0.3-4.8
					c-0.4,0.2-0.5,0.3-0.8,0.2c-0.2,0-0.3-0.2-0.4-0.3c-0.2-0.3-1.7-1.4-3-2.3l-1.8,1c-0.3,0.2-0.7,0.1-0.9-0.2
					c-0.2-0.3-0.1-0.7,0.2-0.9l2.1-1.2c0.2-0.1,0.5-0.1,0.7,0c0.6,0.4,2.5,1.6,3.4,2.5c0,0,0.1-0.1,0.1-0.1c0.9-0.6,1.2-0.8,1.5-0.7
					c0.2,0,0.3,0.2,0.4,0.3c0.1,0.2,0.1,0.3,0.1,0.5c-0.4,1.7-0.8,3.8-0.8,4.9c0.3-0.2,0.5-0.3,0.8-0.2c0.2,0,0.4,0.2,0.5,0.3
					c0.1,0.3,0.1,0.6-0.1,0.8c0,0,0,0,0,0.1c0.2,0.3,0.1,0.7-0.2,0.9c-0.1,0.1-0.2,0.1-0.3,0.1c-0.2,0.1-0.6,0.4-0.8,0.5
					C53.9,10.7,53.6,10.9,53.3,10.9z"/>
			</g>
			<g>
				<path class="st1" d="M49.6,14c-0.1,0-0.1,0-0.2,0c-0.3-0.1-0.5-0.2-0.6-0.5c-0.1-0.2-0.4-0.7-0.6-1.1c-0.3,0.2-0.6,0.3-0.8,0.5
					c-1.6,0.9-1.6,0.9-1.9,0.9l0.2-0.6l0.6-0.3l-0.6,0.3l-0.3-0.6c0.1-0.1,0.8-0.5,1.3-0.8c1.7-1,1.7-1,2-0.9c0.2,0,0.3,0.2,0.4,0.3
					c0,0.1,0.1,0.3,0.3,0.5c0.2,0.3,0.4,0.7,0.5,0.9c0.6-0.2,2-1.4,2.6-1.8c0.9-0.7,1.1-0.9,1.5-0.8c0.2,0,0.4,0.2,0.5,0.3
					c0.2,0.3,0.1,0.7-0.2,0.9c0,0-0.1,0-0.1,0.1c-0.1,0.1-0.4,0.3-0.7,0.5C51.4,13.3,50.4,14,49.6,14z"/>
			</g>
			<g>
				<path class="st1" d="M41.4,34c-0.1,0-0.1,0-0.2,0c-0.2,0-0.4-0.2-0.5-0.3c-0.7-1.1,0.9-2.7,4.3-5.8c0.1-0.1,0.3-0.2,0.4-0.4
					c-0.1-0.1-0.1-0.1-0.1-0.2c-0.3-0.5-0.1-0.9,1.7-3.4c0.2-0.2,0.3-0.5,0.5-0.8c-0.1,0-0.1,0-0.2,0c-0.2,0-0.3-0.2-0.4-0.3
					c-0.1-0.2-0.1-0.4-0.1-0.5c0.3-1.1,0.7-2.3,0.9-3.2c-0.9,0.6-1.1,0.7-1.4,0.6c-0.2,0-0.3-0.2-0.4-0.3c-0.2-0.4-0.1-0.7,0.3-1.2
					c0,0,0,0,0,0c-0.2,0-0.3-0.2-0.4-0.3c-0.1-0.2-0.1-0.3,0-0.9c0.2-1.9,0.2-2.9,0.2-3.5c-0.1,0.1-0.2,0.1-0.2,0.2
					c-0.2,0.1-0.3,0.2-0.5,0.1c-0.2,0-0.3-0.2-0.4-0.3c-0.2-0.4-0.2-0.9-0.1-1.4c-0.4,0.2-0.7,0.2-0.9-0.2c-0.2-0.3-0.1-0.7,0.2-0.9
					c0,0,0.1,0,0.1,0c0.1,0,0.3-0.2,0.5-0.3c0.8-0.5,0.8-0.5,1.1-0.4c0.2,0,0.3,0.2,0.4,0.3c0.2,0.4,0.1,0.9,0,1.4
					c0.2-0.1,0.3-0.1,0.5,0c0.2,0,0.4,0.2,0.5,0.3c0.4,0.7,0.4,2.4,0.2,4.2c0.3-0.2,0.7-0.4,1-0.6c0.2-0.1,0.3-0.1,0.5-0.1
					c0.2,0,0.3,0.2,0.4,0.3c0.2,0.4,0.1,0.8-0.3,1.3c0.1,0.1,0.3,0.2,0.3,0.3c0.1,0.2,0.4,0.6-0.5,3.5c0.4-0.2,0.6-0.3,0.8-0.2
					c0.2,0,0.3,0.2,0.4,0.3c0.3,0.5,0.1,0.9-1.8,3.6c-0.1,0.2-0.2,0.3-0.4,0.5c0.1,0,0.2,0,0.4,0c0.2,0,0.3,0.2,0.4,0.3
					c0.4,0.7-0.3,1.3-2.6,3.4c-0.8,0.7-2.1,1.9-3.1,2.9c0.6-0.4,1.2-0.8,1.8-1.2c0.3-0.2,0.7-0.1,0.9,0.2c0.2,0.3,0.1,0.7-0.2,0.9
					C42.5,33.8,41.7,34,41.4,34z"/>
			</g>
			<g>
				<path class="st1" d="M28,39.2c-0.1,0-0.1,0-0.1,0c-1.7-0.5-4.5-1.4-5.7-2.3c-1.9,1.1-1.9,1.1-2.2,1c-0.1,0-0.2-0.1-0.2-0.1
					c-1.3-1-2.2-1.8-2.8-2.2c-0.4,0.2-0.6,0.3-0.8,0.2c-0.2,0-0.3-0.2-0.4-0.3l-1.6-3.1c-0.2,0.1-0.5,0.3-0.7,0.4
					c-1.1,0.7-1.4,0.9-1.7,0.8c-0.2,0-0.3-0.2-0.4-0.3c-0.1-0.2-0.1-0.4,0-0.6c-0.1-0.1-0.1-0.1-0.2-0.2c-0.1-0.2-0.1-0.4-0.1-0.5
					c0-0.1,0-0.3,0-0.4c0.1-0.2,0.1-0.3,0.2-0.5c-0.7,0.4-0.8,0.4-1.1,0.4c-0.2,0-0.3-0.2-0.4-0.3c-0.1-0.2-0.1-0.4,0-0.6l0.5-1
					c-0.4,0.2-0.5,0.2-0.6,0.1c-0.2,0-0.3-0.2-0.4-0.3c-0.3-0.5,0-1,0.3-2c0.1-0.3,0.3-0.7,0.4-1.1c-1.5,1-1.7,1-2.1,0.9
					c-0.2,0-0.3-0.2-0.4-0.3c-0.8-1.3,0.3-3.4,1.2-5c0-0.1,0.1-0.2,0.1-0.2c-0.2,0.1-0.3,0.2-0.4,0.3c-0.7,0.4-0.8,0.5-1,0.4
					c-0.2,0-0.3-0.2-0.4-0.3C6.4,21,7.2,20,8.4,18.5C8.8,18,9.6,17,10,16.3c-0.2,0.1-0.5,0.3-0.6,0.4c-1.2,0.7-1.2,0.7-1.5,0.7
					c-0.2,0-0.3-0.2-0.4-0.3c-0.4-0.8,0-1.9,0.5-3.1c0.1-0.2,0.2-0.4,0.3-0.7c-0.1,0-0.1,0.1-0.1,0.1c-0.8,0.6-1,0.7-1.4,0.7
					c-0.1,0-0.2-0.1-0.3-0.1c-0.4,0.2-0.5,0.3-0.8,0.2c-0.2,0-0.3-0.2-0.4-0.3c-0.1-0.1-1.7-2.7-2.4-3.8c-0.2,0.1-0.5,0.3-0.7,0.4
					c-0.6,0.4-0.7,0.5-1,0.4c-0.2,0-0.3-0.2-0.4-0.3C0.5,10.3,0.5,10,0.5,9.8C0.6,9.5,0.9,9.2,1.2,9c0.1-0.4,0.2-0.9,0.5-1.8
					c0.2-0.5,0.4-1.3,0.6-1.9C0.8,6.2,0.7,6.2,0.5,6.1C0.3,6.1,0.1,6,0,5.8c-0.2-0.3-0.1-0.7,0.2-0.9l0.9-0.7v0
					c0-0.3-0.1-0.7,0.2-0.9c0.1-0.1,0.3-0.1,0.4-0.1C2.2,3.1,3,2.5,3.5,2.1c1.7-1.2,2.3-1.7,2.9-1.5c0.2,0,0.4,0.2,0.5,0.4
					C7.1,1.2,7,1.6,6.7,1.8L3.8,4C4,4.7,3.6,5.9,3,7.7C3,7.8,2.9,7.9,2.9,8C2.9,8,3,8,3.1,8c0.2,0,0.4,0.2,0.5,0.3
					c0.1,0.1,0.1,0.3,0.1,0.4c0.2,0.4,1.5,2.4,2.3,3.8c0.1-0.1,0.2-0.1,0.2-0.2c1.5-1,1.9-1.2,2.3-1.1c0.1,0,0.1,0.1,0.2,0.1
					c0.1,0,0.3,0,0.4,0c0.2,0,0.4,0.2,0.5,0.3c0.4,0.6,0,1.6-0.5,2.7c-0.1,0.3-0.3,0.7-0.4,1.1c1.9-1.1,1.9-1.1,2.2-1.1
					c0.2,0,0.3,0.2,0.4,0.3c0.7,1.3-0.7,3-2,4.6c-0.1,0.1-0.1,0.2-0.2,0.3c0.5-0.3,0.7-0.3,0.9-0.3c0.2,0,0.3,0.2,0.4,0.3
					c0.3,0.6-0.1,1.3-0.8,2.7c-0.5,0.9-1.2,2.2-1.3,3.1c0.4-0.2,0.8-0.5,1.1-0.7c0.8-0.5,0.9-0.6,1.2-0.5c0.2,0,0.3,0.2,0.4,0.3
					c0.4,0.8,0,1.9-0.4,3c0.1-0.1,0.3-0.2,0.5-0.3c0.6-0.4,0.9,0,1,0.1c0.1,0.2,0.1,0.4,0,0.7l-0.5,1.1c0.2-0.1,0.3-0.1,0.5-0.1
					c0.2,0,0.3,0.2,0.4,0.3c0.1,0.2,0.2,0.4,0,1.2c0.1,0,0.1,0,0.2,0.1c0.6-0.4,0.8-0.5,1.1-0.4c0.2,0,0.3,0.2,0.4,0.3
					c0.1,0.1,0.1,0.2,0.1,0.3c0,0,0,0,0,0c0.2,0,0.3,0.2,0.4,0.3l1.6,3.1c0.2-0.1,0.4-0.2,0.6-0.2c0.2,0,0.3,0.2,0.4,0.3
					c0.2,0.2,1.4,1.2,2.6,2.1c0.4-0.2,1.1-0.6,1.7-1c0.2-0.1,0.3-0.1,0.5-0.1c0.2,0,0.3,0.2,0.4,0.3c0.3,0.4,2.9,1.4,5.1,2.1
					c0.5-0.3,1.6-0.9,2.3-1.3c0.2-0.1,0.3-0.1,0.5-0.1c0,0,0,0,0,0c0.2,0,0.6-0.1,1-0.1c2.2-0.2,3.9-0.4,4.5,0.5
					c0.6-0.1,2.1-1.5,3-2.3c1.9-1.7,3-2.7,3.9-2.5c0.3,0.1,0.6,0.2,0.8,0.5c0.2,0.3,0.1,0.7-0.2,0.9c-0.3,0.2-0.6,0.1-0.8-0.1
					c-0.5,0.2-1.9,1.4-2.8,2.2c-1.9,1.7-3.2,2.8-4.2,2.6c-0.3-0.1-0.6-0.2-0.8-0.5c-0.4-0.3-2.5,0-3.3,0.1c-0.6,0.1-0.9,0.1-1.2,0.1
					C28.6,39,28.3,39.2,28,39.2z"/>
			</g>
		</g>
		<g>
			<g>
				<path class="st4" d="M46.3,9.9c-0.4,0-0.7-0.3-0.7-0.7c0-2.1,0.6-3.5,1.7-4.4c1.7-1.2,3.8-0.5,3.9-0.4c0.4,0.1,0.5,0.5,0.4,0.9
					c-0.1,0.3-0.5,0.5-0.8,0.4c0,0-1.6-0.5-2.7,0.3c-0.8,0.6-1.2,1.6-1.2,3.3C46.9,9.6,46.6,9.9,46.3,9.9z"/>
			</g>
			<g>
				<g>
					<path class="st4" d="M48.1,8.9C48.1,8.9,48.1,8.8,48.1,8.9c-0.2,0-0.3-0.1-0.3-0.2c-0.1-0.1-0.1-0.2,0-0.3c0-0.1,0-0.1,0.1-0.2
						L47,8.7c-0.2,0.1-0.4,0-0.5-0.1c0-0.1-0.1-0.1-0.1-0.2c-0.4,0.2-0.4,0.2-0.5,0.2l0.1-0.3l0.3-0.2l-0.3,0.2L45.9,8
						c0.1,0,0.3-0.2,0.5-0.3c0.8-0.5,0.8-0.5,0.9-0.4c0.1,0,0.2,0.1,0.2,0.2c0,0.1,0.1,0.1,0.1,0.2l0.7-0.4c0.1,0,0.2-0.1,0.3,0
						c0.1,0,0.2,0.1,0.2,0.2c0.1,0.1,0.1,0.2,0,0.5c0.3-0.2,0.8-0.5,1.2-0.7C50.1,7,50.3,7,50.4,7.2c0.1,0.2,0.1,0.4-0.1,0.5
						C48.7,8.7,48.3,8.9,48.1,8.9z"/>
				</g>
				<g>
					<path class="st4" d="M48.6,7.9C48.5,7.9,48.5,7.9,48.6,7.9c-0.2,0-0.3-0.1-0.3-0.2c-0.1-0.2-0.1-0.2,0.1-0.4
						c-0.1,0-0.2-0.1-0.2-0.3c0-0.1,0-0.3,0.1-0.3c0.2-0.1,0.4-0.3,0.6-0.4c0-0.1,0.1-0.2,0.2-0.3c0,0,0.1,0,0.1,0
						c0.1-0.1,0.4-0.2,0.6-0.4C50.5,5,50.6,5,50.8,5C50.9,5,51,5.1,51,5.2c0.1,0.1,0.1,0.2-0.2,0.5c0,0,0,0.1,0,0.1
						c0.3-0.1,0.3-0.1,0.4-0.1c0.1,0,0.2,0.1,0.2,0.2c0.1,0.2,0,0.4-0.1,0.5c0,0-0.1,0-0.1,0C51,6.5,50.4,6.8,50,7.1
						C48.9,7.8,48.7,7.9,48.6,7.9z"/>
				</g>
			</g>
		</g>
		<g>
			<g>
				<g>
					<circle class="st4" cx="19.5" cy="16.4" r="2"/>
				</g>
				<g>
					<circle class="st4" cx="37.1" cy="16.4" r="2"/>
				</g>
			</g>
			<g>
				<path class="st4" d="M32.9,20.7c0,1-3.5,5.9-4.6,5.9c-1.4,0-4.6-4.9-4.6-5.9H32.9z"/>
			</g>
			<g>
				<g>
					<path class="st4" d="M25.2,31.8c-0.5,0-1-0.1-1.5-0.3c-1.6-0.6-2-2.2-2.1-2.2l1.3-0.4l-0.6,0.2l0.6-0.2c0,0,0.3,1,1.3,1.4
						c0.9,0.4,2.2,0.1,3.7-0.7l0.6,1.2C27.3,31.5,26.2,31.8,25.2,31.8z"/>
				</g>
				<g>
					<path class="st4" d="M31.4,31.8c-1,0-2.1-0.3-3.3-1l0.6-1.2c1.5,0.8,2.7,1,3.7,0.7c1-0.4,1.3-1.4,1.3-1.4l1.3,0.4
						c0,0.1-0.5,1.6-2.1,2.3C32.4,31.7,31.9,31.8,31.4,31.8z"/>
				</g>
			</g>
			<g>
				<rect x="28" y="28.7" class="st4" width="0.8" height="1.5"/>
			</g>
			<g>
				<circle class="st1" cx="19.9" cy="16" r="0.8"/>
			</g>
			<g>
				<circle class="st1" cx="36.7" cy="16" r="0.8"/>
			</g>
			<g>
				<path class="st1" d="M28.6,21c0,0.3-2.2,1.2-3,1.2c-0.5,0-0.8-0.7-0.8-1C24.8,20.9,28.6,20.8,28.6,21z"/>
			</g>
		</g>
	</g>
</g>
</svg>
