<?xml version="1.0" encoding="utf-8"?>
<!-- Generator: Adobe Illustrator 21.1.0, SVG Export Plug-In . SVG Version: 6.00 Build 0)  -->
<svg version="1.1" id="Layer_1" xmlns="http://www.w3.org/2000/svg" xmlns:xlink="http://www.w3.org/1999/xlink" x="0px" y="0px"
	 viewBox="0 0 31 31" style="enable-background:new 0 0 31 31;" xml:space="preserve">
<style type="text/css">
	.st0{fill:#D42428;}
	.st1{fill:#FFFFFF;}
	.st2{fill:#55ACEE;}
	.st3{fill:#F1F2F2;}
</style>
<g>
	<g>
		<path class="st0" d="M-24.5-23.8c0,8.3-6.7,15-15,15c-8.3,0-15-6.7-15-15c0-8.3,6.7-15,15-15C-31.2-38.8-24.5-32-24.5-23.8
			L-24.5-23.8z M-24.5-23.8"/>
	</g>
	<path class="st1" d="M-31.6-26.7c0-1.3-1-2.3-2.3-2.3h-10.7c-1.3,0-2.3,1-2.3,2.3v6.1c0,1.3,1,2.3,2.3,2.3h10.7
		c1.3,0,2.3-1,2.3-2.3L-31.6-26.7L-31.6-26.7z M-40.8-21v-5.7l4.3,2.9L-40.8-21z M-40.8-21"/>
</g>
<g>
	<path class="st2" d="M30.6,15.2c0,8.3-6.7,15-15,15s-15-6.7-15-15c0-8.3,6.7-15,15-15S30.6,7,30.6,15.2L30.6,15.2z M30.6,15.2"/>
	<path class="st3" d="M24.8,11c-0.6,0.3-1.3,0.5-2.1,0.6c0.7-0.4,1.3-1.1,1.6-2c-0.7,0.4-1.5,0.7-2.3,0.9c-0.7-0.7-1.6-1.1-2.6-1.1
		c-2,0-3.6,1.6-3.6,3.6c0,0.3,0,0.6,0.1,0.8c-3-0.2-5.6-1.6-7.4-3.7C8.2,10.5,8,11.1,8,11.8c0,1.2,0.6,2.3,1.6,3
		c-0.6,0-1.1-0.2-1.6-0.4c0,0,0,0,0,0c0,1.7,1.2,3.2,2.9,3.5C10.6,18,10.3,18,9.9,18c-0.2,0-0.5,0-0.7-0.1c0.5,1.4,1.8,2.5,3.4,2.5
		c-1.2,1-2.8,1.5-4.5,1.5c-0.3,0-0.6,0-0.9,0c1.6,1,3.5,1.6,5.5,1.6c6.6,0,10.2-5.5,10.2-10.2c0-0.2,0-0.3,0-0.5
		C23.7,12.4,24.3,11.7,24.8,11L24.8,11z M24.8,11"/>
</g>
</svg>
