<?xml version="1.0" encoding="utf-8"?>
<!-- Generator: Adobe Illustrator 21.1.0, SVG Export Plug-In . SVG Version: 6.00 Build 0)  -->
<svg version="1.1" id="Layer_1" xmlns="http://www.w3.org/2000/svg" xmlns:xlink="http://www.w3.org/1999/xlink" x="0px" y="0px"
	 viewBox="0 0 31 31" style="enable-background:new 0 0 31 31;" xml:space="preserve">
<style type="text/css">
	.st0{fill:#D42428;}
	.st1{fill:#FFFFFF;}
</style>
<g>
	<g>
		<path class="st0" d="M30.5,15.2c0,8.3-6.7,15-15,15c-8.3,0-15-6.7-15-15c0-8.3,6.7-15,15-15C23.8,0.2,30.5,7,30.5,15.2L30.5,15.2z
			 M30.5,15.2"/>
	</g>
	<path class="st1" d="M23.4,12.3c0-1.3-1-2.3-2.3-2.3H10.4c-1.3,0-2.3,1-2.3,2.3v6.1c0,1.3,1,2.3,2.3,2.3h10.7c1.3,0,2.3-1,2.3-2.3
		L23.4,12.3L23.4,12.3z M14.2,18v-5.7l4.3,2.9L14.2,18z M14.2,18"/>
</g>
</svg>
