<?xml version="1.0" encoding="utf-8"?>
<!-- Generator: Adobe Illustrator 19.2.1, SVG Export Plug-In . SVG Version: 6.00 Build 0)  -->
<svg version="1.1" id="Слой_1" xmlns="http://www.w3.org/2000/svg" xmlns:xlink="http://www.w3.org/1999/xlink" x="0px" y="0px"
	 width="21px" height="21px" viewBox="0 0 21 21" enable-background="new 0 0 21 21" xml:space="preserve">
<path fill="#1F2E4C" d="M18.5,8.9h-1.8c0.1,0.5,0.2,1.1,0.2,1.6c0,3.6-2.9,6.5-6.5,6.5C6.9,16.9,4,14,4,10.5c0-0.6,0.1-1.1,0.2-1.6
	H2.4v8.9c0,0.4,0.4,0.8,0.8,0.8h14.5c0.4,0,0.8-0.4,0.8-0.8l0,0V8.9z M18.5,3.2c0-0.4-0.4-0.8-0.8-0.8c0,0,0,0,0,0h-2.4
	c-0.4,0-0.8,0.4-0.8,0.8v2.4c0,0.4,0.4,0.8,0.8,0.8c0,0,0,0,0,0h2.4c0.4,0,0.8-0.4,0.8-0.8c0,0,0,0,0,0V3.2z M10.5,6.5
	c-2.2,0-4,1.8-4,4c0,2.2,1.8,4,4,4s4-1.8,4-4C14.5,8.3,12.7,6.5,10.5,6.5 M18.5,21H2.4C1.1,21,0,19.9,0,18.5V2.4C0,1.1,1.1,0,2.4,0
	h16.1C19.9,0,21,1.1,21,2.4v16.1C21,19.9,19.9,21,18.5,21"/>
</svg>
