<?xml version="1.0" encoding="utf-8"?>
<!-- Generator: Adobe Illustrator 19.2.1, SVG Export Plug-In . SVG Version: 6.00 Build 0)  -->
<svg version="1.1" id="Слой_1" xmlns="http://www.w3.org/2000/svg" xmlns:xlink="http://www.w3.org/1999/xlink" x="0px" y="0px"
	 width="97.4px" height="52.3px" viewBox="0 0 97.4 52.3" enable-background="new 0 0 97.4 52.3" xml:space="preserve">
<title>school7 copy</title>
<desc>Created with Sketch.</desc>
<g>
	<path id="Fill-1" fill="#DC5F46" d="M1.6,51.6h0.9c1.9,0,3.2-1.3,3.2-3.1c0-1.8-1.3-3.1-3.2-3.1H1.6V51.6L1.6,51.6z M1.1,52v-7.1
		h1.4c0.6,0,1.7,0.1,2.6,1c0.8,0.8,1,1.8,1,2.6c0,0.8-0.3,1.8-1,2.6c-0.9,0.9-2,1-2.6,1H1.1L1.1,52z"/>
	<polygon id="Fill-3" fill="#DC5F46" points="11.9,44.9 14,51 16,44.9 16.5,44.9 14,52.3 11.4,44.9 	"/>
	<path id="Fill-5" fill="#39659D" d="M25.6,49.3l-1.3-3.4l-1.4,3.4H25.6z M25.8,49.7h-3L21.8,52h-0.5l3-7.3l3,7.3h-0.5L25.8,49.7z"
		/>
	<path id="Fill-7" fill="#DC5F46" d="M33.3,48.2h0.9c0.9,0,1.6-0.5,1.6-1.4c0-0.9-0.6-1.4-1.6-1.4h-0.9V48.2z M33.3,48.7V52h-0.5
		v-7.1h1.4c1.2,0,2.1,0.6,2.1,1.9c0,1.2-0.8,1.9-2.1,1.9H33.3z"/>
	<polygon id="Fill-9" fill="#DC5F46" points="45.5,45.4 42.6,45.4 42.6,47.9 45.5,47.9 45.5,48.4 42.6,48.4 42.6,51.6 45.5,51.6 
		45.5,52 42.1,52 42.1,44.9 45.5,44.9 	"/>
	<polygon id="Fill-11" fill="#DC5F46" points="52,44.9 52,51.6 54,51.6 54,52 51.6,52 51.6,44.9 	"/>
	<path id="Fill-13" fill="#DC5F46" d="M62.9,46.1c-0.4-0.9-1.2-0.9-1.4-0.9c-0.8,0-1.3,0.6-1.3,1.3c0,0.8,0.5,1,1.2,1.4
		c0.7,0.3,1.1,0.5,1.4,0.7c0.3,0.2,0.8,0.6,0.8,1.4c0,1.2-1,2.1-2.2,2.1c-0.9,0-1.4-0.4-1.7-0.7c-0.3-0.3-0.4-0.6-0.5-0.8l0.4-0.2
		c0.1,0.3,0.3,0.6,0.4,0.7c0.3,0.4,0.8,0.6,1.3,0.6c1,0,1.7-0.7,1.7-1.6c0-0.4-0.1-0.8-0.7-1.1c-0.2-0.1-0.7-0.4-1.3-0.7
		c-0.6-0.3-0.9-0.5-1.2-0.9c-0.2-0.3-0.2-0.5-0.2-0.8c0-0.8,0.6-1.8,1.8-1.8c0.7,0,1.4,0.3,1.7,1L62.9,46.1z"/>
	<polygon id="Fill-15" fill="#DC5F46" points="69.6,52 70.1,52 70.1,44.9 69.6,44.9 	"/>
	<polygon id="Fill-17" fill="#DC5F46" points="76.5,52 76.5,44.8 82.5,51.1 82.5,44.9 82.9,44.9 82.9,52.2 77,46 77,52 	"/>
	<path id="Fill-18" fill="#DC5F46" d="M92.9,49.3l-1.3-3.4l-1.4,3.4H92.9z M93,49.7h-3L89,52h-0.5l3-7.3l3,7.3H94L93,49.7z"/>
	<path id="SCHOOL" fill="#DC5F46" d="M9,17c-0.3-0.6-0.7-1-1-1.3c-0.4-0.4-1.2-0.9-2.7-0.9c-2.5,0-3.9,1.7-3.9,3.5
		c0,2,1.6,2.9,2.7,3.4l1.3,0.5c0.9,0.4,1.9,0.9,1.9,2.3c0,1.3-1,2.2-2.2,2.2c-0.8,0-1.3-0.3-1.7-0.8c-0.3-0.4-0.6-1-0.6-1.7l-2,0.4
		C1,25.5,1.3,26.4,2,27.2c0.7,0.8,1.6,1.3,3.1,1.3c2.5,0,4.3-1.7,4.3-4.2c0-1.5-0.7-2.9-3.1-3.9L5,19.9c-1.3-0.5-1.4-1.2-1.4-1.6
		c0-0.9,0.6-1.6,1.9-1.6c0.6,0,1,0.1,1.4,0.5c0.3,0.3,0.5,0.5,0.6,0.8L9,17z M25.8,15.8c-1.2-0.7-2.3-1-3.5-1
		c-1.8,0-3.4,0.4-4.8,1.7c-1.1,1.1-2.1,2.7-2.1,5.2c0,1.9,0.6,3.6,2.1,5c0.8,0.7,2.3,1.8,4.7,1.8c0.9,0,2.3-0.2,3.6-1v-2.4
		c-0.8,0.7-2,1.5-3.6,1.5c-2.8,0-4.8-2.2-4.8-5c0-2.9,1.9-5,4.8-5c0.8,0,2.1,0.1,3.6,1.5V15.8z M34.3,15h-2v13.2h2v-6.1H40v6.1h2V15
		h-2v5.2h-5.7V15z M55.5,14.8c-4,0-6.9,3-6.9,6.9s2.9,6.9,6.9,6.9s6.9-3,6.9-6.9S59.4,14.8,55.5,14.8L55.5,14.8z M55.5,26.7
		c-2.8,0-4.9-2.1-4.9-5c0-2.9,2-5,4.9-5c2.8,0,4.9,2.1,4.9,5C60.3,24.6,58.3,26.7,55.5,26.7L55.5,26.7z M75.2,14.8
		c-4,0-6.9,3-6.9,6.9s2.9,6.9,6.9,6.9c4,0,6.9-3,6.9-6.9S79.1,14.8,75.2,14.8L75.2,14.8z M75.2,26.7c-2.8,0-4.9-2.1-4.9-5
		c0-2.9,2-5,4.9-5c2.8,0,4.9,2.1,4.9,5C80,24.6,78,26.7,75.2,26.7L75.2,26.7z M88.6,15v13.2h5.9v-1.9h-3.9V15H88.6z"/>
	<g enable-background="new    ">
		<path fill="#DC5F46" d="M0,0.3h1.3l1.5,4.1C2.9,4.7,3,4.9,3.1,5.1c0.1,0.2,0.1,0.4,0.2,0.6c0.1-0.4,0.3-0.8,0.4-1.3
			c0-0.1,0-0.1,0-0.1L5.3,0L7,4.4C7.1,4.6,7.2,4.8,7.3,5c0.1,0.2,0.1,0.4,0.2,0.6c0-0.2,0.1-0.3,0.1-0.5c0.1-0.2,0.1-0.4,0.2-0.7
			l1.5-4.1h1.3L7.5,8.7L5.7,4.1C5.6,3.9,5.5,3.7,5.5,3.5C5.4,3.3,5.4,3.1,5.3,3C5.2,3.2,5.2,3.4,5.1,3.6C5.1,3.8,5,4,4.9,4.1
			L3.1,8.7L0,0.3z"/>
		<path fill="#DC5F46" d="M18.7,8.4V0.3h4.5v1.1h-3.2v2h3.2v1.2h-3.2v2.6h3.2v1.2H18.7z"/>
		<path fill="#DC5F46" d="M31.9,8.4V0.3h1.8c1.2,0,2,0.1,2.4,0.2c0.5,0.1,0.9,0.3,1.2,0.6c0.5,0.4,0.8,0.8,1.1,1.4s0.4,1.2,0.4,1.9
			s-0.1,1.4-0.4,1.9s-0.6,1-1.1,1.4c-0.4,0.3-0.8,0.5-1.2,0.6S35,8.4,34.1,8.4h-0.4H31.9z M33.2,7.2h1.1c0.6,0,1.1,0,1.4-0.1
			C36,7,36.3,6.9,36.5,6.7c0.3-0.3,0.5-0.6,0.7-1c0.2-0.4,0.2-0.8,0.2-1.4s-0.1-1-0.2-1.4c-0.2-0.4-0.4-0.7-0.7-1
			c-0.2-0.2-0.5-0.3-0.8-0.4c-0.3-0.1-0.8-0.1-1.5-0.1h-0.5h-0.5V7.2z"/>
		<path fill="#DC5F46" d="M47.5,8.4V0.3h1.8c1.2,0,2,0.1,2.4,0.2c0.5,0.1,0.9,0.3,1.2,0.6c0.5,0.4,0.8,0.8,1.1,1.4s0.4,1.2,0.4,1.9
			S54.2,5.7,54,6.3s-0.6,1-1.1,1.4c-0.4,0.3-0.8,0.5-1.2,0.6s-1.2,0.2-2.1,0.2h-0.4H47.5z M48.8,7.2h1.1c0.6,0,1.1,0,1.4-0.1
			C51.6,7,51.8,6.9,52,6.7c0.3-0.3,0.5-0.6,0.7-1C52.9,5.3,53,4.9,53,4.4s-0.1-1-0.2-1.4c-0.2-0.4-0.4-0.7-0.7-1
			c-0.2-0.2-0.5-0.3-0.8-0.4c-0.3-0.1-0.8-0.1-1.5-0.1h-0.5h-0.5V7.2z"/>
		<path fill="#DC5F46" d="M63,8.4V0.3h1.3v8.1H63z"/>
		<path fill="#DC5F46" d="M73.4,8.4V0l5.1,4.9c0.1,0.1,0.3,0.3,0.4,0.4c0.1,0.2,0.3,0.3,0.5,0.5V0.3h1.2v8.4l-5.2-5
			c-0.1-0.1-0.3-0.3-0.4-0.4c-0.1-0.2-0.3-0.3-0.4-0.5v5.6H73.4z"/>
		<path fill="#DC5F46" d="M94.1,4.3h3.2c0,0.1,0,0.1,0,0.2c0,0.3,0,0.4,0,0.5c0,1.1-0.3,2-1,2.6c-0.7,0.6-1.6,0.9-2.8,0.9
			c-0.7,0-1.3-0.1-1.8-0.3c-0.5-0.2-1-0.5-1.4-0.9c-0.4-0.4-0.7-0.8-0.9-1.4c-0.2-0.5-0.3-1.1-0.3-1.7c0-0.6,0.1-1.2,0.3-1.7
			c0.2-0.5,0.5-1,0.9-1.4c0.4-0.4,0.9-0.7,1.4-0.9s1.1-0.3,1.7-0.3c0.6,0,1.2,0.1,1.7,0.3c0.5,0.2,0.9,0.6,1.3,1.1l-1,0.7
			c-0.3-0.3-0.6-0.6-0.9-0.7c-0.3-0.2-0.7-0.2-1.1-0.2c-0.9,0-1.6,0.3-2.1,0.8s-0.8,1.3-0.8,2.2c0,0.9,0.3,1.7,0.8,2.2
			c0.6,0.6,1.3,0.9,2.2,0.9c0.8,0,1.3-0.2,1.8-0.5c0.4-0.3,0.6-0.8,0.6-1.4V5.4h-1.9V4.3z"/>
	</g>
</g>
</svg>
