<?xml version="1.0" encoding="utf-8"?>
<!-- Generator: Adobe Illustrator 19.2.1, SVG Export Plug-In . SVG Version: 6.00 Build 0)  -->
<svg version="1.1" id="Слой_1" xmlns="http://www.w3.org/2000/svg" xmlns:xlink="http://www.w3.org/1999/xlink" x="0px" y="0px"
	 width="21px" height="21px" viewBox="0 0 21 21" enable-background="new 0 0 21 21" xml:space="preserve">
<g>
	<path fill="#1F2E4C" d="M19.8,14.6c-1.4,0-2.8-0.2-4.2-0.7c-0.3-0.1-0.8,0-1.2,0.2l-2.6,2.6c-3.3-1.6-6-4.4-7.7-7.7l2.6-2.6
		C7.1,6.1,7.2,5.6,7,5.3C6.6,4,6.4,2.6,6.4,1.2C6.4,0.5,5.9,0,5.3,0H1.2C0.5,0,0,0.5,0,1.2C0,12.1,8.9,21,19.8,21
		c0.7,0,1.2-0.5,1.2-1.2v-4.1C21,15.1,20.5,14.6,19.8,14.6L19.8,14.6z M18.7,10.5H21C21,4.7,16.3,0,10.5,0v2.3
		C15.1,2.3,18.7,5.9,18.7,10.5L18.7,10.5z M14,10.5h2.3c0-3.3-2.6-5.8-5.8-5.8V7C12.5,7,14,8.5,14,10.5L14,10.5z M14,10.5"/>
</g>
</svg>
