<?xml version="1.0" encoding="utf-8"?>
<!-- Generator: Adobe Illustrator 21.1.0, SVG Export Plug-In . SVG Version: 6.00 Build 0)  -->
<svg version="1.1" id="_x38_" xmlns="http://www.w3.org/2000/svg" xmlns:xlink="http://www.w3.org/1999/xlink" x="0px" y="0px"
	 viewBox="0 0 37 57.9" style="enable-background:new 0 0 37 57.9;" xml:space="preserve">
<style type="text/css">
	.st0{fill-rule:evenodd;clip-rule:evenodd;fill:#D30510;}
	.st1{fill-rule:evenodd;clip-rule:evenodd;fill:#FFFFFF;}
</style>
<path class="st0" d="M8.9,21.6c0.2,0.7,0.5,1.5,0.9,2.1l-1.1,1.4c-0.3,0.4-0.3,1.1,0.1,1.5l1.9,1.8c0.4,0.4,1,0.5,1.5,0.1l1.4-1.1
	c0.7,0.4,1.5,0.7,2.2,0.9l0.2,1.7c0.1,0.6,0.6,1,1.1,1h2.7c0.6,0,1.1-0.4,1.1-1l0.2-1.7c0.8-0.2,1.7-0.5,2.4-1l1.3,1
	c0.4,0.4,1.1,0.3,1.5,0l1.8-1.9c0.4-0.4,0.5-1.1,0.1-1.5l-1-1.3c0.4-0.7,0.8-1.5,1-2.3l1.6-0.2c0.6,0,1-0.5,1-1.1v-2.6
	c0-0.6-0.4-1.1-1-1.1l-1.6-0.2c-0.2-0.8-0.5-1.6-1-2.3l1-1.2c0.3-0.5,0.3-1.1-0.1-1.5l-1.8-1.9c-0.4-0.4-1.1-0.4-1.5,0l-1.2,0.9
	c-0.8-0.4-1.6-0.8-2.4-1L21,7.6c0-0.5-0.5-1-1.1-1h-2.6c-0.6,0-1.1,0.4-1.1,1l-0.2,1.6c-0.9,0.2-1.7,0.6-2.5,1l-1.2-0.9
	c-0.4-0.4-1.1-0.3-1.5,0l-1.9,1.9c-0.4,0.4-0.4,1-0.1,1.5l1,1.3c-0.4,0.7-0.7,1.6-0.9,2.3l-1.6,0.2c-0.6,0.1-1,0.5-1,1.1v2.7
	c0,0.5,0.4,1,1,1.1L8.9,21.6z M18.5,16.5c1.3,0,2.4,1.1,2.4,2.4c0,1.4-1.1,2.4-2.4,2.4c-1.4,0-2.4-1.1-2.4-2.4
	C16.1,17.5,17.2,16.5,18.5,16.5L18.5,16.5z M37,18.5C37,8.3,28.7,0,18.5,0C8.3,0,0,8.3,0,18.5c0,4.3,1.5,8.3,3.9,11.4
	c2.2,2.8,4.2,5.8,6,8.8v9.8h17v-9.6c1.7-3,4-6.4,6.1-9C35.5,26.8,37,22.8,37,18.5L37,18.5z M18.5,13.1c3.2,0,5.7,2.6,5.7,5.7
	c0,3.2-2.6,5.8-5.7,5.8c-3.2,0-5.8-2.6-5.8-5.8C12.7,15.7,15.3,13.1,18.5,13.1L18.5,13.1z M14.6,54.5c0.3,1.9,1.9,3.4,3.9,3.4
	c1.9,0,3.6-1.5,3.8-3.4c2.6-0.1,4.7-2.3,4.7-4.9H10C10,52.2,12,54.4,14.6,54.5L14.6,54.5z M18.5,15c2.1,0,3.9,1.7,3.9,3.8
	c0,2.2-1.7,3.9-3.9,3.9c-2.1,0-3.9-1.7-3.9-3.9C14.6,16.7,16.4,15,18.5,15L18.5,15z"/>
<circle class="st1" cx="18.2" cy="19.1" r="14"/>
</svg>
