<?xml version="1.0" encoding="utf-8"?>
<!-- Generator: Adobe Illustrator 21.1.0, SVG Export Plug-In . SVG Version: 6.00 Build 0)  -->
<svg version="1.1" id="_x38_" xmlns="http://www.w3.org/2000/svg" xmlns:xlink="http://www.w3.org/1999/xlink" x="0px" y="0px"
	 viewBox="0 0 60.1 47.5" style="enable-background:new 0 0 60.1 47.5;" xml:space="preserve">
<style type="text/css">
	.st0{fill-rule:evenodd;clip-rule:evenodd;fill:#D30510;}
	.st1{fill-rule:evenodd;clip-rule:evenodd;fill:#FFFFFF;}
</style>
<path class="st0" d="M44.4,5.2c6,2.5,11.5,6.7,15.8,12.5c-3.3,4.4-7.1,7.9-11.4,10.3l-1.5-1.5c1.3-2.7,1.9-5.6,1.9-8.6
	C49.2,13.2,47.4,8.6,44.4,5.2L44.4,5.2z M47.7,18.1c0-10-8.1-18.1-18-18.1c-10,0-18.1,8.1-18.1,18.1c0,10,8.1,18,18.1,18
	c3.5,0,6.7-1,9.5-2.7l10.3,10.3c1.7,1.7,4.6,1.7,6.4,0c1.8-1.7,1.8-4.6,0-6.4L45.4,26.9C46.9,24.3,47.7,21.3,47.7,18.1L47.7,18.1z
	 M29.7,31.6c-7.5,0-13.6-6.1-13.6-13.5c0-7.5,6.1-13.6,13.6-13.6c7.4,0,13.5,6.1,13.5,13.6C43.2,25.5,37.1,31.6,29.7,31.6L29.7,31.6
	z M0,17.8c4-5.4,9-9.4,14.5-12c-2.7,3.4-4.3,7.6-4.3,12.2c0,4.2,1.4,8.2,3.7,11.4C8.6,26.9,3.8,23,0,17.8L0,17.8z"/>
<g>
	<path class="st0" d="M22.1,20.1c0.2,0.6,0.4,1.2,0.7,1.8L21.9,23c-0.3,0.4-0.3,0.9,0.1,1.2l1.6,1.6c0.3,0.3,0.9,0.4,1.3,0l1.2-0.9
		c0.6,0.3,1.2,0.6,1.9,0.8l0.2,1.5c0,0.5,0.4,0.8,0.9,0.8l2.3,0c0.5,0,0.9-0.4,0.9-0.8l0.2-1.4c0.7-0.2,1.4-0.5,2-0.8l1.1,0.9
		c0.4,0.3,1,0.3,1.3-0.1l1.6-1.6c0.3-0.3,0.4-0.9,0.1-1.2l-0.9-1.1c0.4-0.6,0.7-1.3,0.8-2l1.4-0.2c0.5,0,0.8-0.4,0.8-0.9l0-2.3
		c0-0.5-0.4-0.9-0.8-0.9l-1.3-0.1c-0.2-0.7-0.5-1.4-0.8-2l0.8-1c0.3-0.4,0.3-0.9-0.1-1.2l-1.6-1.6c-0.3-0.3-0.9-0.4-1.3-0.1l-1,0.8
		c-0.6-0.4-1.3-0.7-2.1-0.9l-0.1-1.3c-0.1-0.5-0.5-0.8-1-0.8l-2.2,0c-0.5,0-0.9,0.4-1,0.8L28,9.5c-0.7,0.2-1.5,0.5-2.1,0.9l-1-0.8
		c-0.4-0.3-0.9-0.3-1.3,0.1L22,11.2c-0.3,0.3-0.4,0.9-0.1,1.2l0.9,1.1c-0.4,0.6-0.6,1.3-0.8,2l-1.4,0.1c-0.5,0.1-0.8,0.5-0.8,1
		l0,2.2c0,0.5,0.4,0.9,0.8,1L22.1,20.1z"/>
	<path class="st1" d="M30.2,12.4c3,0,5.4,2.4,5.4,5.3c0,3-2.4,5.4-5.4,5.4c-2.9,0-5.3-2.4-5.3-5.4C24.9,14.8,27.3,12.4,30.2,12.4
		L30.2,12.4z"/>
	<path class="st0" d="M30.2,12.9c2.7,0,4.9,2.2,4.9,4.9c0,2.7-2.2,4.9-4.9,4.9c-2.7,0-4.9-2.2-4.9-4.9
		C25.3,15.1,27.5,12.9,30.2,12.9L30.2,12.9z"/>
	<path class="st1" d="M30.2,14.5c1.8,0,3.3,1.5,3.3,3.3c0,1.8-1.5,3.3-3.3,3.3c-1.8,0-3.3-1.5-3.3-3.3
		C26.9,15.9,28.4,14.5,30.2,14.5L30.2,14.5z"/>
</g>
</svg>
