<?xml version="1.0" encoding="utf-8"?>
<!-- Generator: Adobe Illustrator 21.1.0, SVG Export Plug-In . SVG Version: 6.00 Build 0)  -->
<svg version="1.1" id="Слой_1" xmlns="http://www.w3.org/2000/svg" xmlns:xlink="http://www.w3.org/1999/xlink" x="0px" y="0px"
	 viewBox="0 0 67.3 74.2" style="enable-background:new 0 0 67.3 74.2;" xml:space="preserve">
<style type="text/css">
	.st0{fill:#373737;}
</style>
<path class="st0" d="M6.6,74.1c-2.4,0-4.5,0-6.6,0c-0.7-10.1,5.5-24.3,20.1-31c-7-5.5-10.7-12.6-10.1-21.5c0.5-6.5,3.4-11.8,8.3-16
	C27.7-2.5,41.9-1.7,50.5,7c8.2,8.3,10.7,25.4-3.3,36.1c14.8,7,20.4,20.9,20,31.1c-1.1,0-2.1,0-3.2,0c-1.1,0-2.2,0-3.4,0
	c-0.3-8.8-3.6-16-10.4-21.3c-5-3.9-10.9-5.8-17.2-5.6c-7.2,0.2-13.5,2.8-18.6,8C9.3,60.4,6.8,66.7,6.6,74.1z M33.7,40.4
	c9.4,0,16.8-7.6,16.8-17c0-9.2-7.7-16.8-16.9-16.7c-9.3,0-16.8,7.7-16.8,17C16.8,33,24.4,40.4,33.7,40.4z"/>
</svg>
