<?xml version="1.0" encoding="utf-8"?>
<!-- Generator: Adobe Illustrator 21.1.0, SVG Export Plug-In . SVG Version: 6.00 Build 0)  -->
<svg version="1.1" id="Слой_1" xmlns="http://www.w3.org/2000/svg" xmlns:xlink="http://www.w3.org/1999/xlink" x="0px" y="0px"
	 viewBox="0 0 101 75.8" style="enable-background:new 0 0 101 75.8;" xml:space="preserve">
<style type="text/css">
	.st0{fill:#373737;}
</style>
<path class="st0" d="M0,75.8C0,50.5,0,25.3,0,0c33.7,0,67.4,0,101.1,0c0,25.3,0,50.5,0,75.8C67.4,75.8,33.7,75.8,0,75.8z M94.7,10.6
	C79.9,23.3,65.2,35.8,50.5,48.4C35.8,35.8,21.1,23.3,6.4,10.6c0,19.7,0,39.3,0,58.8c29.5,0,58.9,0,88.3,0
	C94.7,49.9,94.7,30.3,94.7,10.6z M89.7,6.4c-26.2,0-52.2,0-78.4,0C24.5,17.7,37.5,28.8,50.5,40C63.6,28.8,76.6,17.7,89.7,6.4z"/>
</svg>
