<svg id="Слой_1" data-name="Слой 1" xmlns="http://www.w3.org/2000/svg" viewBox="0 0 2048 498.73"><defs><style>.cls-1{fill:#d30510;}.cls-2{fill:#fff;}</style></defs><title>neborosoft_logo</title><rect class="cls-1" width="500.02" height="498.73"/><rect x="92.57" y="92.33" width="314.88" height="314.06"/><path class="cls-2" d="M672,231.35v-138h41.83V293.79h-43.2l-68-108q-5-8.46-10.07-16.63t-10.07-16.63a1.16,1.16,0,0,0-.73.15,1.15,1.15,0,0,1-.73.15V293.79H539.17V93.35h43.88q15.74,24.51,31.05,48.43t30.76,48.73l25.36,40.85Z"/><path class="cls-2" d="M817.07,146.74q23.1,0,36.27,7.29t19.75,18.09a58.41,58.41,0,0,1,8.19,22.9,167.25,167.25,0,0,1,1.61,21.74v14.88H788.69q0,16.78,8.34,25.31t27.64,8.53a112.54,112.54,0,0,0,23.4-2.48,165,165,0,0,0,22.82-6.57L879.38,282a106.77,106.77,0,0,1-30.13,11,155.81,155.81,0,0,1-30.72,3.18q-21.65,0-35.62-6t-22-16.19a59,59,0,0,1-11-23.49,125.4,125.4,0,0,1-3-28.16,118.15,118.15,0,0,1,2.92-25.09,66,66,0,0,1,10.82-24.51,62.85,62.85,0,0,1,21.5-18.53Q795.71,146.74,817.07,146.74Zm1.62,26.55a29.66,29.66,0,0,0-13.23,2.63,23.92,23.92,0,0,0-8.68,7.15,32.86,32.86,0,0,0-5.15,10.5,64.46,64.46,0,0,0-2.35,12.4h55.58q-.3-14.29-5.74-23.49T818.69,173.29Z"/><path class="cls-2" d="M950.16,84.89v42.31q0,2.92-.15,7.15t-.29,8.61q-.15,4.38-.29,8.46t-.15,7l2,1.17a84.21,84.21,0,0,1,23.26-10.36,78.13,78.13,0,0,1,18.58-2.77q16.08,0,27.06,5.69a46.88,46.88,0,0,1,17.7,15.76,66,66,0,0,1,9.51,24.07,156.07,156.07,0,0,1,2.78,30.34,121.35,121.35,0,0,1-3.21,28.3,60.28,60.28,0,0,1-11.09,23.49q-7.89,10.07-21.45,16t-34.3,6q-7,0-15.91-.73T946,293.06a168,168,0,0,1-18.83-4.38,127.3,127.3,0,0,1-18.24-6.86V84.89Zm30.57,92.78a47.12,47.12,0,0,0-15.58,2.77,98.5,98.5,0,0,0-14.41,6.27v74.69a55.87,55.87,0,0,0,14.41,4.23,90.32,90.32,0,0,0,12.94,1,37.19,37.19,0,0,0,12.06-1.9,21.44,21.44,0,0,0,9.7-6.86q4.11-5,6.32-13.42t2.21-21.59q0-14.29-2.21-23.2t-6-13.71a19.5,19.5,0,0,0-8.82-6.56A31.79,31.79,0,0,0,980.74,177.67Z"/><path class="cls-2" d="M1219.28,222a105.05,105.05,0,0,1-3.8,28.45,62.68,62.68,0,0,1-12.58,23.93,60.16,60.16,0,0,1-22.82,16.34q-14,6-34.52,6-19.9,0-33.64-5.84A58.14,58.14,0,0,1,1089.7,275a60.55,60.55,0,0,1-12.14-23.63,111,111,0,0,1-3.66-29,98.83,98.83,0,0,1,4.1-28.74,64.67,64.67,0,0,1,12.87-23.78,62.64,62.64,0,0,1,22.67-16.34q13.89-6.13,33.79-6.13,20.19,0,33.93,6a58.14,58.14,0,0,1,22.23,16.34,63.3,63.3,0,0,1,12.14,23.93A108.93,108.93,0,0,1,1219.28,222Zm-43.29.29a117.6,117.6,0,0,0-1.17-16.63,50.18,50.18,0,0,0-4.24-14.59,26.47,26.47,0,0,0-8.63-10.36q-5.56-3.94-14.63-3.94t-14.92,3.94a29.1,29.1,0,0,0-9.36,10.36,45.18,45.18,0,0,0-4.83,14.59,104.39,104.39,0,0,0-1.32,16.63,125.58,125.58,0,0,0,1.17,17.8,40.18,40.18,0,0,0,4.53,14.15,25.28,25.28,0,0,0,9.22,9.48q5.85,3.5,15.5,3.5,8.78,0,14.48-3.65a24.07,24.07,0,0,0,8.78-9.92,48.26,48.26,0,0,0,4.24-14.44A119.63,119.63,0,0,0,1176,222.31Z"/><path class="cls-2" d="M1289.78,175.92a119.61,119.61,0,0,1,12.87-11.09A129,129,0,0,1,1317,155.5a83.78,83.78,0,0,1,14.33-6.42,41.87,41.87,0,0,1,13.16-2.33q8.19,0,8.19,9.63a49.81,49.81,0,0,1-1.17,9.77,115.19,115.19,0,0,1-3.07,11.67,108.94,108.94,0,0,1-4.24,11.23,47.24,47.24,0,0,1-4.68,8.46l-48.85-.58v96.87h-41.83V150.54h41.25q0,5-.58,12.25T1288.32,175Z"/><path class="cls-2" d="M1509.76,222a105.05,105.05,0,0,1-3.8,28.45,62.68,62.68,0,0,1-12.58,23.93,60.16,60.16,0,0,1-22.82,16.34q-14,6-34.52,6-19.9,0-33.64-5.84a58.14,58.14,0,0,1-22.23-15.9A60.55,60.55,0,0,1,1368,251.34a111,111,0,0,1-3.66-29,98.83,98.83,0,0,1,4.1-28.74,64.67,64.67,0,0,1,12.87-23.78A62.64,62.64,0,0,1,1404,153.45q13.89-6.13,33.79-6.13,20.19,0,33.93,6A58.14,58.14,0,0,1,1494,169.65a63.3,63.3,0,0,1,12.14,23.93A108.93,108.93,0,0,1,1509.76,222Zm-43.29.29a117.6,117.6,0,0,0-1.17-16.63,50.18,50.18,0,0,0-4.24-14.59,26.47,26.47,0,0,0-8.63-10.36q-5.56-3.94-14.63-3.94t-14.92,3.94a29.1,29.1,0,0,0-9.36,10.36,45.18,45.18,0,0,0-4.83,14.59,104.39,104.39,0,0,0-1.32,16.63,125.58,125.58,0,0,0,1.17,17.8,40.18,40.18,0,0,0,4.53,14.15,25.28,25.28,0,0,0,9.22,9.48q5.85,3.5,15.5,3.5,8.78,0,14.48-3.65a24.07,24.07,0,0,0,8.78-9.92,48.26,48.26,0,0,0,4.24-14.44A119.63,119.63,0,0,0,1466.46,222.31Z"/><path class="cls-2" d="M1596.93,147a145.38,145.38,0,0,1,25.3,2.48,84.53,84.53,0,0,1,25.3,8.61c-.39.78-1,2.38-1.9,4.81s-1.76,5.06-2.63,7.88-1.75,5.5-2.63,8a51.43,51.43,0,0,1-1.9,5,114.55,114.55,0,0,0-21.65-6,116.62,116.62,0,0,0-18.43-1.6,40.83,40.83,0,0,0-14.48,2.48q-6.58,2.48-6.58,10.65a6.62,6.62,0,0,0,2.49,5.11,26.58,26.58,0,0,0,6.14,3.94,44.47,44.47,0,0,0,8.19,2.92q4.53,1.17,8.63,2.33,9.06,2.63,18.43,6a69.85,69.85,0,0,1,17.11,8.9A45.71,45.71,0,0,1,1651,232.38q5,8.32,5,20.86,0,20.72-16.67,31.8T1589,296.13q-6.14,0-13.6-.58a149.59,149.59,0,0,1-15.36-2q-7.9-1.46-15.5-3.65a82.14,82.14,0,0,1-14-5.4l9.07-26q17.84,6.42,30.72,8a173.16,173.16,0,0,0,20.18,1.6q10.24,0,17.26-3.36t7-12.4a10.72,10.72,0,0,0-2.34-7.15,20.38,20.38,0,0,0-6.29-4.81,52.05,52.05,0,0,0-8.78-3.5q-4.83-1.46-9.51-2.92-9.95-2.91-19.31-6.27a78.74,78.74,0,0,1-16.53-8A37.67,37.67,0,0,1,1540.47,208q-4.39-7-4.39-17.51,0-20.71,15.5-32.09T1596.93,147Z"/><path class="cls-2" d="M1822.17,222a105.05,105.05,0,0,1-3.8,28.45,62.68,62.68,0,0,1-12.58,23.93A60.16,60.16,0,0,1,1783,290.73q-14,6-34.52,6-19.9,0-33.64-5.84a58.14,58.14,0,0,1-22.23-15.9,60.55,60.55,0,0,1-12.14-23.63,111,111,0,0,1-3.66-29,98.83,98.83,0,0,1,4.1-28.74,64.67,64.67,0,0,1,12.87-23.78,62.64,62.64,0,0,1,22.67-16.34q13.89-6.13,33.79-6.13,20.19,0,33.93,6a58.14,58.14,0,0,1,22.23,16.34,63.3,63.3,0,0,1,12.14,23.93A108.93,108.93,0,0,1,1822.17,222Zm-43.29.29a117.6,117.6,0,0,0-1.17-16.63,50.18,50.18,0,0,0-4.24-14.59,26.47,26.47,0,0,0-8.63-10.36q-5.56-3.94-14.63-3.94t-14.92,3.94a29.1,29.1,0,0,0-9.36,10.36,45.18,45.18,0,0,0-4.83,14.59,104.39,104.39,0,0,0-1.32,16.63,125.58,125.58,0,0,0,1.17,17.8,40.18,40.18,0,0,0,4.53,14.15,25.28,25.28,0,0,0,9.22,9.48q5.85,3.5,15.5,3.5,8.78,0,14.48-3.65a24.07,24.07,0,0,0,8.78-9.92,48.26,48.26,0,0,0,4.24-14.44A119.63,119.63,0,0,0,1778.88,222.31Z"/><path class="cls-2" d="M1862.25,177.67h-20.48V149.61l20.77-.54V128.65a70.7,70.7,0,0,1,2.49-19.11,37.88,37.88,0,0,1,8.63-15.61q6.14-6.71,16.67-10.5t26.33-3.79q7.6,0,18.43.88a108.88,108.88,0,0,1,21.06,3.79l-5.85,28.88q-6.14-1.16-12.73-1.75t-11.26-.58q-11.41,0-17.26,4.23t-5.85,15v20.13h57.63a46.72,46.72,0,0,0,2.34-7q1.46-5.25,3.07-11.09t3.07-11.09a66.18,66.18,0,0,1,2.34-7.29l26.91-2.92v39.39h41.83v27.43h-41.83v64.77q0,11.38,4.09,16.78t15.21,5.4a75.35,75.35,0,0,0,10.82-1q6.73-1,14.33-2.77l5,27.13a93.17,93.17,0,0,1-20.33,6.13,111.82,111.82,0,0,1-20.33,2q-14.92,0-24.72-3.5t-15.36-9.34a32.06,32.06,0,0,1-7.75-13.57,59,59,0,0,1-2.19-16.19V177.67h-54.41V293.79h-40.66Z"/><path class="cls-2" d="M576,396.83h-.21c-2.75,5.06-8.46,9.07-16.7,9.07-11.95,0-21.67-10.33-21.67-25.83,0-19.09,12.37-27.52,23.15-27.52,7.93,0,13.22,3.9,15.75,8.86h.21l.32-7.7h8.77c-.21,4.32-.32,8.75-.32,14v57.89H576Zm0-22.46a15.76,15.76,0,0,0-.42-3.9,13.59,13.59,0,0,0-13.32-10.54c-9.62,0-15.44,8.12-15.44,19.61,0,10.12,4.86,19,15.12,19,6,0,11.21-3.69,13.32-10.12A15.55,15.55,0,0,0,576,384Z"/><path class="cls-2" d="M651.37,390.82c0,5.27.11,9.91.42,13.92h-8.25L643,396.4h-.21a19.26,19.26,0,0,1-16.92,9.49c-8,0-17.66-4.43-17.66-22.35V353.7h9.3V382c0,9.7,3,16.24,11.42,16.24A13.06,13.06,0,0,0,642.07,385V353.7h9.3Z"/><path class="cls-2" d="M703.06,404.73l-.74-6.43H702a19.08,19.08,0,0,1-15.65,7.59c-10.36,0-15.65-7.28-15.65-14.66,0-12.34,11-19.08,30.77-19V371.2c0-4.22-1.16-11.81-11.63-11.81a25.54,25.54,0,0,0-13.32,3.8l-2.11-6.12a31.82,31.82,0,0,1,16.81-4.53c15.65,0,19.45,10.65,19.45,20.88V392.5a71.67,71.67,0,0,0,.85,12.23Zm-1.37-26c-10.15-.21-21.67,1.58-21.67,11.49,0,6,4,8.86,8.77,8.86a12.73,12.73,0,0,0,12.37-8.54,9.66,9.66,0,0,0,.53-3Z"/><path class="cls-2" d="M733.61,329.87h9.3v74.86h-9.3Z"/><path class="cls-2" d="M776.85,339.36c.11,3.16-2.22,5.69-5.92,5.69a5.52,5.52,0,0,1-5.6-5.69,5.66,5.66,0,0,1,5.81-5.8A5.51,5.51,0,0,1,776.85,339.36Zm-10.36,65.37v-51h9.3v51Z"/><path class="cls-2" d="M810.36,339V353.7h13.32v7.06H810.36v27.52c0,6.33,1.8,9.91,7,9.91a20.72,20.72,0,0,0,5.39-.63l.42,7a22.84,22.84,0,0,1-8.25,1.27c-4.33,0-7.82-1.37-10-3.9-2.64-2.74-3.59-7.28-3.59-13.29V360.77h-7.93V353.7h7.93V341.47Z"/><path class="cls-2" d="M846.4,353.7l11.21,30.16c1.16,3.37,2.43,7.38,3.28,10.44h.21c1-3.06,2-7,3.28-10.65l10.15-29.94h9.83l-14,36.38c-6.66,17.5-11.21,26.47-17.55,31.95a25.23,25.23,0,0,1-11.42,6l-2.33-7.8a24.62,24.62,0,0,0,8.14-4.53,28.14,28.14,0,0,0,7.82-10.33,6.66,6.66,0,0,0,.74-2.21,8.09,8.09,0,0,0-.63-2.43l-18.92-47Z"/><path class="cls-2" d="M927,419.5c4.23-.32,7.93-1.48,10.15-3.9,2.54-3,3.49-7,3.49-19.19V353.7h9.3V400c0,9.91-1.59,16.34-6.13,21-4.12,4.11-10.89,5.8-15.86,5.8Zm24-80.13a5.45,5.45,0,0,1-5.81,5.69,5.55,5.55,0,0,1-5.71-5.69,5.69,5.69,0,0,1,5.92-5.8A5.49,5.49,0,0,1,951,339.36Z"/><path class="cls-2" d="M1015.86,390.82c0,5.27.11,9.91.42,13.92H1008l-.53-8.33h-.21a19.26,19.26,0,0,1-16.92,9.49c-8,0-17.66-4.43-17.66-22.35V353.7H982V382c0,9.7,3,16.24,11.42,16.24A13.06,13.06,0,0,0,1006.56,385V353.7h9.3Z"/><path class="cls-2" d="M1039.22,367.51c0-5.27-.11-9.6-.42-13.81H1047l.53,8.43h.21a18.82,18.82,0,0,1,16.92-9.59c7.08,0,18.08,4.22,18.08,21.72v30.47h-9.3V375.32c0-8.22-3.07-15.08-11.84-15.08a13.61,13.61,0,0,0-13.11,13.81v30.68h-9.3Z"/><path class="cls-2" d="M1115,377.11h.21c1.27-1.79,3.07-4,4.55-5.8l15-17.61H1146l-19.77,21,22.52,30.05h-11.31l-17.66-24.46-4.76,5.27v19.19h-9.2V329.87h9.2Z"/><path class="cls-2" d="M1175.48,339.36c.11,3.16-2.22,5.69-5.92,5.69a5.52,5.52,0,0,1-5.6-5.69,5.66,5.66,0,0,1,5.82-5.8A5.51,5.51,0,0,1,1175.48,339.36Zm-10.36,65.37v-51h9.3v51Z"/><path class="cls-2" d="M1203,380.9c.21,12.55,8.25,17.71,17.55,17.71a33.72,33.72,0,0,0,14.17-2.64l1.59,6.64c-3.28,1.48-8.88,3.16-17,3.16-15.75,0-25.16-10.33-25.16-25.73s9.09-27.52,24-27.52c16.7,0,21.14,14.66,21.14,24a35,35,0,0,1-.32,4.32Zm27.28-6.64c.11-5.91-2.43-15.08-12.9-15.08-9.41,0-13.53,8.65-14.27,15.08Z"/><path class="cls-2" d="M1257.41,395.24a24.44,24.44,0,0,0,12.26,3.69c6.77,0,9.94-3.37,9.94-7.59,0-4.43-2.64-6.85-9.51-9.38-9.2-3.27-13.53-8.33-13.53-14.45,0-8.22,6.66-15,17.65-15a25.6,25.6,0,0,1,12.58,3.16l-2.33,6.75a20,20,0,0,0-10.47-3c-5.5,0-8.56,3.16-8.56,7,0,4.22,3.07,6.12,9.73,8.65,8.88,3.37,13.43,7.8,13.43,15.39,0,9-7,15.29-19.14,15.29a29.25,29.25,0,0,1-14.38-3.48Z"/></svg>