<?xml version="1.0" encoding="utf-8"?>
<!-- Generator: Adobe Illustrator 21.1.0, SVG Export Plug-In . SVG Version: 6.00 Build 0)  -->
<svg version="1.1" id="Слой_1" xmlns="http://www.w3.org/2000/svg" xmlns:xlink="http://www.w3.org/1999/xlink" x="0px" y="0px"
	 viewBox="0 0 288.8 633.6" style="enable-background:new 0 0 288.8 633.6;" xml:space="preserve">
<style type="text/css">
	.st0{fill:#FFFFFF;}
</style>
<path class="st0" d="M122.1,0c12,3.6,24.8,5.4,35.7,11c39.8,20.5,62.8,53.1,63.1,98.7c0.6,108.5,0.4,216.9,0.1,325.4
	c-0.1,41.6-33.7,73.3-75.5,72.5c-41.3-0.8-72.6-31.8-72.9-73.3c-0.4-55.9-0.1-111.8-0.1-167.6c0-12.2,8-20.4,19.2-20.5
	c11.4-0.1,19.3,8,19.4,20.3c0.1,54.2,0,108.5,0.1,162.7c0,18.4,8.4,32,23.1,37.3c23.9,8.8,46.6-7.2,48.1-33.8c0.1-1.2,0-2.5,0-3.7
	c0-105,0-209.9,0-314.9c0-33.5-19.1-61.1-49.1-71.3c-44.6-15.2-93.5,18.4-94,65.5c-0.6,62.1-0.2,124.1-0.2,186.2
	c0,66.6-0.4,133.2,0.3,199.8c0.5,52.4,44.5,96.3,96.8,100.1c60.5,4.4,104.6-42.5,111.4-85.1c1.3-7.9,1.8-16,1.8-24
	c0.1-93.2,0.1-186.4,0.1-279.6c0-11.9,4.8-19,14.5-21.6c11.6-3.1,22.4,3.8,24.2,15.6c0.4,2.6,0.5,5.3,0.5,8
	c0,92.6-0.1,185.2,0.1,277.8c0.1,51.3-19.8,92.4-61.5,122.4c-31.7,22.8-67.7,29.6-105.8,23.8c-59.7-9-106.4-53.8-118.3-112.8
	c-2.2-10.6-2.9-21.7-3-32.6C0,362.4,0,238.5,0.1,114.5c0-48.8,23-83.6,66.2-105c8.7-4.3,18.8-5.6,28.3-8.3c1.3-0.4,2.7-0.8,4-1.2
	C106.4,0,114.3,0,122.1,0z"/>
</svg>
