<svg id="Слой_1" data-name="Слой 1" xmlns="http://www.w3.org/2000/svg" viewBox="0 0 346.53 346.5"><defs><style>.cls-1{fill:#fff;}</style></defs><title>значки сайт</title><path class="cls-1" d="M339.26,172.74a170.53,170.53,0,0,1-3,30.56,3.88,3.88,0,0,0,.25,2.14A118.17,118.17,0,0,1,345.24,232a84.06,84.06,0,0,1,.87,23.22,97.08,97.08,0,0,1-11.43,37.94c-12.41,22.7-30.77,38.59-55.1,47.47a96.86,96.86,0,0,1-35,5.83,80.51,80.51,0,0,1-25.66-4.75c-4.55-1.61-9-3.55-13.49-5.27a4.21,4.21,0,0,0-2.17-.18,158.56,158.56,0,0,1-33.22,2.94c-34.86-.85-66.54-11.33-94.63-32-31.89-23.48-52.9-54.51-63-92.84a160.16,160.16,0,0,1-5.14-43.75,171.21,171.21,0,0,1,2.91-27.1A4.6,4.6,0,0,0,9.92,141a116.87,116.87,0,0,1-8.68-26.6A85,85,0,0,1,.47,90.78,95.76,95.76,0,0,1,12.69,51.86C28.17,25,51.08,8.2,81.52,1.9A86.74,86.74,0,0,1,110.13.66a97.52,97.52,0,0,1,25.17,7,6.9,6.9,0,0,1,1.23.51c3.89,2.62,8,2.05,12.34,1.29a146.27,146.27,0,0,1,36-1.69,159.89,159.89,0,0,1,51.31,12q60.54,25.55,88.33,85.17a152.66,152.66,0,0,1,13.21,46c.9,7.26,1.32,14.57,2,21.86Zm-26.67-.27a145.35,145.35,0,0,0-2.69-26.57A139.28,139.28,0,0,0,224.44,43.67a136.54,136.54,0,0,0-41.62-9.31A132.63,132.63,0,0,0,147,36.55a19,19,0,0,1-13.2-1.82,71.49,71.49,0,0,0-46.15-6.88A71,71,0,0,0,44.07,52.92C29,71,23.91,91.93,28.08,115.08a68,68,0,0,0,7.26,20.33,15,15,0,0,1,1.5,9.66c-1,6.88-2.19,13.78-2.63,20.71a133.2,133.2,0,0,0,4,42A138.9,138.9,0,0,0,163.74,312.23,135,135,0,0,0,199.52,310c4.23-.86,8.17-.78,12.12,1.31A72.41,72.41,0,0,0,256.91,319a69.87,69.87,0,0,0,37.43-17.19c20.6-18.5,28.55-41.65,24.3-69a67,67,0,0,0-7.47-21.51,13.89,13.89,0,0,1-1.55-9.64A148,148,0,0,0,312.59,172.47Z"/><path class="cls-1" d="M175.27,266.81c-12.64-.27-25.08-1.63-37.14-5.55-11.31-3.68-21.55-9.15-29.54-18.21a35.8,35.8,0,0,1-8.8-17.63c-1.45-8.14,1.91-15.48,8.75-18.85s15.29-2.33,20.68,3a101.56,101.56,0,0,1,9.14,10.73,40.52,40.52,0,0,0,29.9,16.29c8,.69,16,.44,23.61-2.48a27.38,27.38,0,0,0,13.13-9.8c5.8-8.28,5.15-21.51-7.15-26.91a88.63,88.63,0,0,0-13.55-4.18c-11.76-3-23.54-5.94-35.34-8.83-7.42-1.81-14.77-3.79-21.7-7.07-8.54-4-16-9.42-21-17.64a40.94,40.94,0,0,1-5.63-16.49,57.06,57.06,0,0,1,1.84-24.89c3.87-12.06,11.79-20.75,22.58-27a80.27,80.27,0,0,1,26.17-9.3,105,105,0,0,1,31.28-1.32c16.37,1.9,31.72,6.73,45.19,16.55a38.11,38.11,0,0,1,12.29,14c2.17,4.46,3.28,9.16,2.1,14.07-1.64,6.81-6.53,10.31-13,11.86-7.35,1.76-13.7,0-18.84-5.69-1.76-1.94-3.6-3.81-5.33-5.78a39.38,39.38,0,0,0-24-13.4c-8.41-1.34-16.8-1.52-25.06.92-4.91,1.45-9.29,3.84-12.39,8.05a16.86,16.86,0,0,0-3,15.11c1.29,4.62,4.88,7.27,8.93,9.35,5.45,2.8,11.34,4.27,17.27,5.61,12.71,2.86,25.45,5.61,38.13,8.56,9.53,2.22,18.54,5.75,26.48,11.64a43.91,43.91,0,0,1,17.92,30.44c1.47,10.73.48,21.18-4.1,31.1-5.4,11.69-14.45,19.68-25.93,25.13a86.6,86.6,0,0,1-28.76,7.68C185.38,266.25,180.32,266.46,175.27,266.81Z"/></svg>