<svg id="Слой_1" data-name="Слой 1" xmlns="http://www.w3.org/2000/svg" viewBox="0 0 346.53 381.61"><defs><style>.cls-1{fill:#fff;}</style></defs><title>viber white home</title><path class="cls-1" d="M82.52,381.41c0-.57,0-1,0-1.41,0-21.4,0-42.79,0-64.19,0-2.17-.67-3.5-2.68-4.23-3.62-1.32-7.19-2.82-10.86-4-24.33-7.77-40.74-24.33-51.93-46.67-5.59-11.16-9-23.06-11.63-35.2a238.28,238.28,0,0,1-5-36.7A295.82,295.82,0,0,1,.74,151.3a421.69,421.69,0,0,1,7.56-56A98.63,98.63,0,0,1,42.06,38.55C55.65,27,71.33,19.35,88.14,13.8A225.81,225.81,0,0,1,124,5.49,289.66,289.66,0,0,1,177.71,2c9,.27,18.1.91,27.12,1.73A315.2,315.2,0,0,1,251,11.21c16.79,4.09,32.71,10.27,47.06,20.08,19.22,13.14,31.61,31.18,38.06,53.4a256.74,256.74,0,0,1,8.33,42.36,304.36,304.36,0,0,1,1.78,48c-.42,9.69-.92,19.4-1.9,29-2.3,22.65-8.17,44.34-18.77,64.58-7.68,14.67-19.07,25.8-33.38,34-11.33,6.5-23.55,10.65-36.26,13.5a198.41,198.41,0,0,1-30.28,4.38q-18.25,1.22-36.53,2c-11,.49-22,.71-33,1.11a3.31,3.31,0,0,0-2.14.86C139.93,340,124.87,354.47,110,369.09Q104,374.91,98,380.66a2.36,2.36,0,0,1-1.39.72C92,381.44,87.37,381.41,82.52,381.41Zm16.48-25c4.58-4.46,9-8.58,13.17-12.87q14.65-14.86,29.16-29.87a20.07,20.07,0,0,1,14.12-6.49c16.18-.66,32.37-1.17,48.55-1.82a309.25,309.25,0,0,0,40.74-3.85c13-2.27,25.64-5.9,37.39-12.13,12.47-6.61,22.35-15.91,28.88-28.5,8.82-17,14-35.17,16.41-54.13A343.18,343.18,0,0,0,329.92,170a290.75,290.75,0,0,0-3.8-54.79,200.62,200.62,0,0,0-7.25-30.37A75.94,75.94,0,0,0,291.67,47c-10.75-7.95-22.73-13.38-35.47-17.24-13-3.93-26.27-6.24-39.67-8.06a355.36,355.36,0,0,0-38.62-3.2A284.29,284.29,0,0,0,131,21.17a229.84,229.84,0,0,0-31,6.27c-15,4.26-29.19,10.27-42,19.34-17.31,12.28-28.43,28.8-33,49.49-2.14,9.7-3.5,19.58-5,29.41a321.24,321.24,0,0,0-3.26,34,250.87,250.87,0,0,0,2,46.4,193.56,193.56,0,0,0,8,35.18c4.36,12.93,10.7,24.71,20.52,34.39C53.75,282,60.95,287.07,69.64,290c5.2,1.73,10.32,3.73,15.36,5.9a34.37,34.37,0,0,1,7.63,4.45c4.52,3.56,6.32,8.58,6.35,14.2.07,13.4,0,26.81,0,40.22C99,355.18,99,355.64,99,356.44Z"/><path class="cls-1" d="M226.51,274.16a28.86,28.86,0,0,1-11.37-2.46c-24.76-10.48-47.86-23.77-68.78-40.73a247.74,247.74,0,0,1-65.65-81.1c-4.37-8.62-7.61-17.81-11.35-26.74A36.29,36.29,0,0,1,66.2,112.2a30,30,0,0,1,2.58-14.92c3.9-8.86,10.84-14.56,19.59-18.21a49.22,49.22,0,0,1,8.08-2.54c5.35-1.21,10.06.42,14,4a121.2,121.2,0,0,1,22,26.95c2.4,4,4.6,8,6.69,12.18,3.46,6.84,2.26,12.64-3.5,17.67-2.78,2.43-5.74,4.66-8.43,7.18-3.72,3.49-6.12,7.73-5.53,13a29.75,29.75,0,0,0,1.9,7.7A89,89,0,0,0,151,201.91a110,110,0,0,0,25.69,15c7.89,3.39,14.63.74,19.32-6.13,2.73-4,5.76-7.63,10.33-9.57,5.88-2.5,11.6-1.45,17.19,1.08,5,2.27,9.26,5.73,13.64,9,6.57,4.84,13.14,9.68,19.57,14.7,3.62,2.82,6.39,6.37,7.13,11.12a18.08,18.08,0,0,1-1.72,10.14,45.85,45.85,0,0,1-23.07,23.59C233.53,273.47,230.79,274.15,226.51,274.16Z"/><path class="cls-1" d="M272,149.2a86.42,86.42,0,0,1-2.14,19.4c-.84,3.83-3.61,6.36-7.12,6.56-4.18.24-7.67-1.9-8.87-5.41a9.34,9.34,0,0,1-.08-5.08c3.89-18.69,1.36-36.44-8.47-52.85-11.22-18.73-27.75-30.18-49.2-34.39a73.1,73.1,0,0,0-29.91.61,7.82,7.82,0,0,1-9.47-6.19c-1-4.67,1.26-8.73,5.78-9.83a86.3,86.3,0,0,1,26.21-2.13A85.08,85.08,0,0,1,225,70.34c23.59,13.13,38.62,32.87,44.87,59.18A81.55,81.55,0,0,1,272,149.2Z"/><path class="cls-1" d="M182.87,84.15a65.52,65.52,0,0,1,63.38,52.4,64.35,64.35,0,0,1,.22,24.19c-.83,4.57-4.59,7.1-9.43,6.41a7.75,7.75,0,0,1-6.83-8.76,62.41,62.41,0,0,0,.61-13.09,48.19,48.19,0,0,0-40.67-43.79,44.8,44.8,0,0,0-15.39.09c-8,1.48-11.32-5.75-9.73-10.86a7.15,7.15,0,0,1,6.08-5.25C175,84.9,178.95,84.58,182.87,84.15Z"/><path class="cls-1" d="M182.33,109.18c19.1.17,36.31,14.64,39.63,33.47a37.75,37.75,0,0,1,.63,9.34c-.33,4.34-4.23,7.12-8.68,6.77s-7.58-3.47-7.65-7.95c-.13-8.75-3.59-15.79-10.8-20.85A24.93,24.93,0,0,0,181,125.64a7.69,7.69,0,0,1-7.77-6.83C172.48,112.93,176.07,109.13,182.33,109.18Z"/></svg>